%TF.GenerationSoftware,KiCad,Pcbnew,7.0.7*%
%TF.CreationDate,2024-04-29T13:44:55+02:00*%
%TF.ProjectId,IsItOpen,49734974-4f70-4656-9e2e-6b696361645f,rev?*%
%TF.SameCoordinates,Original*%
%TF.FileFunction,Paste,Top*%
%TF.FilePolarity,Positive*%
%FSLAX46Y46*%
G04 Gerber Fmt 4.6, Leading zero omitted, Abs format (unit mm)*
G04 Created by KiCad (PCBNEW 7.0.7) date 2024-04-29 13:44:55*
%MOMM*%
%LPD*%
G01*
G04 APERTURE LIST*
G04 Aperture macros list*
%AMRoundRect*
0 Rectangle with rounded corners*
0 $1 Rounding radius*
0 $2 $3 $4 $5 $6 $7 $8 $9 X,Y pos of 4 corners*
0 Add a 4 corners polygon primitive as box body*
4,1,4,$2,$3,$4,$5,$6,$7,$8,$9,$2,$3,0*
0 Add four circle primitives for the rounded corners*
1,1,$1+$1,$2,$3*
1,1,$1+$1,$4,$5*
1,1,$1+$1,$6,$7*
1,1,$1+$1,$8,$9*
0 Add four rect primitives between the rounded corners*
20,1,$1+$1,$2,$3,$4,$5,0*
20,1,$1+$1,$4,$5,$6,$7,0*
20,1,$1+$1,$6,$7,$8,$9,0*
20,1,$1+$1,$8,$9,$2,$3,0*%
G04 Aperture macros list end*
%ADD10RoundRect,0.500000X-0.500000X-5.500000X0.500000X-5.500000X0.500000X5.500000X-0.500000X5.500000X0*%
%ADD11RoundRect,0.500000X-0.500000X-1.000000X0.500000X-1.000000X0.500000X1.000000X-0.500000X1.000000X0*%
%ADD12RoundRect,0.500000X-0.500000X-2.000000X0.500000X-2.000000X0.500000X2.000000X-0.500000X2.000000X0*%
%ADD13RoundRect,0.250000X0.650000X-0.412500X0.650000X0.412500X-0.650000X0.412500X-0.650000X-0.412500X0*%
%ADD14RoundRect,0.250000X0.350000X0.450000X-0.350000X0.450000X-0.350000X-0.450000X0.350000X-0.450000X0*%
%ADD15R,1.500000X0.900000*%
%ADD16RoundRect,0.250000X0.412500X0.650000X-0.412500X0.650000X-0.412500X-0.650000X0.412500X-0.650000X0*%
%ADD17RoundRect,0.250000X-0.650000X0.412500X-0.650000X-0.412500X0.650000X-0.412500X0.650000X0.412500X0*%
%ADD18RoundRect,0.250000X-0.450000X0.350000X-0.450000X-0.350000X0.450000X-0.350000X0.450000X0.350000X0*%
%ADD19RoundRect,0.250000X-0.412500X-0.650000X0.412500X-0.650000X0.412500X0.650000X-0.412500X0.650000X0*%
%ADD20RoundRect,0.150000X0.650000X0.150000X-0.650000X0.150000X-0.650000X-0.150000X0.650000X-0.150000X0*%
G04 APERTURE END LIST*
D10*
%TO.C,J3*%
X192000000Y-55550000D03*
X187800000Y-55450000D03*
X183200000Y-55550000D03*
X116900000Y-55550000D03*
X112700000Y-55550000D03*
X108100000Y-55550000D03*
X108100000Y-55550000D03*
X192000000Y-55550000D03*
X187800000Y-55450000D03*
X183200000Y-55550000D03*
X112700000Y-55550000D03*
X116900000Y-55550000D03*
%TD*%
D11*
%TO.C,Je*%
X183050000Y-68000000D03*
X116750000Y-68000000D03*
D12*
X187650000Y-67000000D03*
X191850000Y-67000000D03*
X191850000Y-74000000D03*
X187650000Y-74000000D03*
X183050000Y-74000000D03*
X112550000Y-67000000D03*
X107950000Y-67000000D03*
X107950000Y-74000000D03*
X112550000Y-74000000D03*
X116750000Y-74000000D03*
X187650000Y-67000000D03*
D11*
X183050000Y-68000000D03*
X116750000Y-68000000D03*
D12*
X191850000Y-67000000D03*
X112550000Y-67000000D03*
X107950000Y-67000000D03*
X191850000Y-74000000D03*
X187650000Y-74000000D03*
X183050000Y-74000000D03*
X107950000Y-74000000D03*
X112550000Y-74000000D03*
X116750000Y-74000000D03*
%TD*%
D13*
%TO.C,C7*%
X128250000Y-94875000D03*
X128250000Y-91750000D03*
%TD*%
D14*
%TO.C,R2*%
X129250000Y-130250000D03*
X127250000Y-130250000D03*
%TD*%
D13*
%TO.C,C12*%
X197250000Y-45875000D03*
X197250000Y-42750000D03*
%TD*%
D15*
%TO.C,D4*%
X140450000Y-46400000D03*
X140450000Y-43100000D03*
X135550000Y-43100000D03*
X135550000Y-46400000D03*
%TD*%
D16*
%TO.C,C4*%
X141125000Y-113250000D03*
X138000000Y-113250000D03*
%TD*%
D17*
%TO.C,C5*%
X131750000Y-81375000D03*
X131750000Y-84500000D03*
%TD*%
D18*
%TO.C,R3*%
X123500000Y-92500000D03*
X123500000Y-94500000D03*
%TD*%
D15*
%TO.C,D1*%
X185450000Y-91150000D03*
X185450000Y-87850000D03*
X180550000Y-87850000D03*
X180550000Y-91150000D03*
%TD*%
D18*
%TO.C,R6*%
X189750000Y-96750000D03*
X189750000Y-98750000D03*
%TD*%
%TO.C,R4*%
X180750000Y-96750000D03*
X180750000Y-98750000D03*
%TD*%
D15*
%TO.C,D6*%
X188500000Y-46250000D03*
X188500000Y-42950000D03*
X183600000Y-42950000D03*
X183600000Y-46250000D03*
%TD*%
%TO.C,D5*%
X164750000Y-46500000D03*
X164750000Y-43200000D03*
X159850000Y-43200000D03*
X159850000Y-46500000D03*
%TD*%
%TO.C,D3*%
X117750000Y-46500000D03*
X117750000Y-43200000D03*
X112850000Y-43200000D03*
X112850000Y-46500000D03*
%TD*%
D19*
%TO.C,C2*%
X117750000Y-137500000D03*
X120875000Y-137500000D03*
%TD*%
D20*
%TO.C,U4*%
X122750000Y-134040000D03*
X122750000Y-132770000D03*
X122750000Y-131500000D03*
X122750000Y-130230000D03*
X115550000Y-130230000D03*
X115550000Y-131500000D03*
X115550000Y-132770000D03*
X115550000Y-134040000D03*
%TD*%
D14*
%TO.C,R1*%
X123250000Y-126750000D03*
X121250000Y-126750000D03*
%TD*%
D19*
%TO.C,C9*%
X148250000Y-134750000D03*
X151375000Y-134750000D03*
%TD*%
D18*
%TO.C,R5*%
X185250000Y-96750000D03*
X185250000Y-98750000D03*
%TD*%
%TO.C,R7*%
X194250000Y-96750000D03*
X194250000Y-98750000D03*
%TD*%
D15*
%TO.C,D2*%
X195000000Y-91250000D03*
X195000000Y-87950000D03*
X190100000Y-87950000D03*
X190100000Y-91250000D03*
%TD*%
D16*
%TO.C,C11*%
X182125000Y-80750000D03*
X179000000Y-80750000D03*
%TD*%
M02*
