M48
; DRILL file {KiCad 7.0.7} date Mon Apr 29 13:45:03 2024
; FORMAT={-:-/ absolute / metric / decimal}
; #@! TF.CreationDate,2024-04-29T13:45:03+02:00
; #@! TF.GenerationSoftware,Kicad,Pcbnew,7.0.7
; #@! TF.FileFunction,Plated,1,2,PTH
FMAT,2
METRIC
; #@! TA.AperFunction,Plated,PTH,ViaDrill
T1C0.400
; #@! TA.AperFunction,Plated,PTH,ComponentDrill
T2C0.800
; #@! TA.AperFunction,Plated,PTH,ComponentDrill
T3C0.900
; #@! TA.AperFunction,Plated,PTH,ComponentDrill
T4C1.000
; #@! TA.AperFunction,Plated,PTH,ComponentDrill
T5C1.300
%
G90
G05
T1
X102.5Y-113.75
X102.5Y-114.75
X102.5Y-115.75
X104.25Y-93.25
X104.5Y-90.5
X104.5Y-91.75
X107.75Y-65.0
X108.0Y-76.0
X108.25Y-50.25
X112.5Y-65.25
X112.5Y-76.0
X113.0Y-50.25
X116.75Y-66.5
X116.75Y-76.0
X117.0Y-50.25
X117.0Y-123.75
X118.5Y-123.5
X119.75Y-123.5
X121.25Y-84.75
X126.25Y-47.0
X126.75Y-50.25
X126.75Y-69.5
X129.75Y-113.5
X131.25Y-113.5
X132.5Y-113.25
X133.75Y-69.25
X137.75Y-116.25
X139.0Y-116.25
X141.25Y-69.25
X158.75Y-100.75
X160.5Y-100.75
X161.0Y-50.25
X161.75Y-101.0
X162.0Y-124.25
X162.75Y-69.5
X163.75Y-124.25
X164.25Y-128.0
X165.25Y-117.0
X166.5Y-128.25
X167.25Y-69.5
X172.25Y-81.5
X173.5Y-81.5
X176.75Y-77.5
X176.75Y-102.25
X176.75Y-113.0
X177.5Y-128.0
X177.75Y-101.5
X178.25Y-94.5
X179.0Y-100.75
X180.25Y-94.5
X181.75Y-116.75
X183.0Y-66.5
X183.0Y-76.0
X183.25Y-50.5
X184.25Y-102.5
X185.0Y-80.25
X186.0Y-48.75
X186.0Y-84.25
X187.5Y-85.5
X187.75Y-50.5
X187.75Y-65.75
X187.75Y-76.0
X188.0Y-86.5
X188.5Y-85.0
X190.3Y-77.3
X191.75Y-65.5
X191.75Y-134.25
X192.0Y-50.25
X192.0Y-76.0
X192.0Y-135.75
X192.25Y-95.5
X193.75Y-103.0
X194.25Y-110.25
X194.25Y-111.25
X194.25Y-112.5
T2
X128.5Y-134.75
X128.5Y-137.25
X133.25Y-131.0
X135.25Y-92.0
X135.25Y-94.5
X135.38Y-79.18
X135.38Y-81.72
X135.38Y-84.26
X135.38Y-86.8
X135.38Y-100.13
X135.38Y-102.67
X135.38Y-105.21
X135.38Y-107.75
X135.75Y-131.0
X141.75Y-132.0
X141.75Y-134.5
X142.5Y-92.0
X142.5Y-94.5
X143.0Y-79.18
X143.0Y-81.72
X143.0Y-84.26
X143.0Y-86.8
X143.0Y-100.13
X143.0Y-102.67
X143.0Y-105.21
X143.0Y-107.75
X148.5Y-85.4
X148.5Y-87.94
X148.5Y-90.48
X148.5Y-93.02
X148.5Y-95.56
X148.5Y-98.1
X148.5Y-100.64
X148.5Y-103.18
X148.5Y-105.72
X148.5Y-108.26
X148.5Y-110.8
X148.5Y-113.34
X148.5Y-115.88
X148.5Y-118.42
X148.5Y-120.96
X148.5Y-123.5
X148.5Y-126.04
X148.5Y-128.58
X148.5Y-131.12
X173.896Y-128.577
X173.896Y-131.117
X173.9Y-85.4
X173.9Y-87.94
X173.9Y-90.48
X173.9Y-93.02
X173.9Y-95.56
X173.9Y-98.1
X173.9Y-100.64
X173.9Y-103.18
X173.9Y-105.72
X173.9Y-108.26
X173.9Y-110.8
X173.9Y-113.34
X173.9Y-115.88
X173.9Y-118.42
X173.9Y-120.96
X173.9Y-123.5
X173.9Y-126.04
T3
X137.25Y-125.0
X139.75Y-120.0
X142.25Y-125.0
T4
X111.25Y-132.96
X111.25Y-135.5
X181.0Y-104.475
X181.0Y-107.015
X181.0Y-119.975
X181.0Y-122.515
X188.0Y-104.46
X188.0Y-107.0
X188.0Y-119.71
X188.0Y-122.25
X197.5Y-104.89
X197.5Y-107.43
X197.5Y-109.97
X197.5Y-112.51
X197.5Y-115.05
X197.5Y-117.59
X197.5Y-120.13
X197.5Y-122.67
X197.5Y-125.21
X197.5Y-127.75
T5
X182.5Y-134.25
X187.5Y-134.25
T0
M30
