%TF.GenerationSoftware,KiCad,Pcbnew,7.0.7*%
%TF.CreationDate,2024-04-29T13:44:55+02:00*%
%TF.ProjectId,IsItOpen,49734974-4f70-4656-9e2e-6b696361645f,rev?*%
%TF.SameCoordinates,Original*%
%TF.FileFunction,Soldermask,Bot*%
%TF.FilePolarity,Negative*%
%FSLAX46Y46*%
G04 Gerber Fmt 4.6, Leading zero omitted, Abs format (unit mm)*
G04 Created by KiCad (PCBNEW 7.0.7) date 2024-04-29 13:44:55*
%MOMM*%
%LPD*%
G01*
G04 APERTURE LIST*
%ADD10R,1.600000X1.600000*%
%ADD11C,1.600000*%
%ADD12R,1.700000X1.700000*%
%ADD13O,1.700000X1.700000*%
%ADD14O,1.600000X1.600000*%
%ADD15C,0.500000*%
%ADD16C,3.200000*%
%ADD17C,1.620000*%
%ADD18R,2.000000X1.200000*%
%ADD19O,2.000000X1.200000*%
%ADD20R,2.500000X2.500000*%
%ADD21C,2.500000*%
G04 APERTURE END LIST*
D10*
%TO.C,C3*%
X128500000Y-137250000D03*
D11*
X128500000Y-134750000D03*
%TD*%
D10*
%TO.C,C8*%
X142500000Y-94500000D03*
D11*
X142500000Y-92000000D03*
%TD*%
D10*
%TO.C,C1*%
X133250000Y-131000000D03*
D11*
X135750000Y-131000000D03*
%TD*%
D12*
%TO.C,J1*%
X197500000Y-104890000D03*
D13*
X197500000Y-107430000D03*
X197500000Y-109970000D03*
X197500000Y-112510000D03*
X197500000Y-115050000D03*
X197500000Y-117590000D03*
X197500000Y-120130000D03*
X197500000Y-122670000D03*
X197500000Y-125210000D03*
X197500000Y-127750000D03*
%TD*%
D10*
%TO.C,U3*%
X135380000Y-100130000D03*
D14*
X135380000Y-102670000D03*
X135380000Y-105210000D03*
X135380000Y-107750000D03*
X143000000Y-107750000D03*
X143000000Y-105210000D03*
X143000000Y-102670000D03*
X143000000Y-100130000D03*
%TD*%
D12*
%TO.C,SW2*%
X188000000Y-104460000D03*
D13*
X188000000Y-107000000D03*
%TD*%
D15*
%TO.C,mouse-bite-1mm-slot*%
X186600000Y-62500000D03*
X186600000Y-64000000D03*
X187400000Y-62250000D03*
X187400000Y-64250000D03*
X188100000Y-62250000D03*
X188100000Y-64250000D03*
X188900000Y-62500000D03*
X188900000Y-64000000D03*
%TD*%
D16*
%TO.C,H3*%
X196000000Y-79000000D03*
%TD*%
D12*
%TO.C,LS1*%
X111250000Y-132960000D03*
D13*
X111250000Y-135500000D03*
%TD*%
D12*
%TO.C,SW3*%
X181000000Y-119975000D03*
D13*
X181000000Y-122515000D03*
%TD*%
D16*
%TO.C,H1*%
X104000000Y-135000000D03*
%TD*%
%TO.C,H2*%
X104000000Y-79000000D03*
%TD*%
D17*
%TO.C,RV1*%
X142250000Y-125000000D03*
X139750000Y-120000000D03*
X137250000Y-125000000D03*
%TD*%
D12*
%TO.C,SW4*%
X188000000Y-119710000D03*
D13*
X188000000Y-122250000D03*
%TD*%
D16*
%TO.C,H4*%
X196000000Y-135000000D03*
%TD*%
D18*
%TO.C,U1*%
X148500000Y-85400000D03*
D19*
X148500000Y-87940000D03*
X148500000Y-90480000D03*
X148500000Y-93020000D03*
X148500000Y-95560000D03*
X148500000Y-98100000D03*
X148500000Y-100640000D03*
X148500000Y-103180000D03*
X148500000Y-105720000D03*
X148500000Y-108260000D03*
X148500000Y-110800000D03*
X148500000Y-113340000D03*
X148500000Y-115880000D03*
X148500000Y-118420000D03*
X148500000Y-120960000D03*
X148500000Y-123500000D03*
X148500000Y-126040000D03*
X148500000Y-128580000D03*
X148500000Y-131120000D03*
X173896320Y-131117280D03*
X173896320Y-128577280D03*
X173900000Y-126040000D03*
X173900000Y-123500000D03*
X173900000Y-120960000D03*
X173900000Y-118420000D03*
X173900000Y-115880000D03*
X173900000Y-113340000D03*
X173900000Y-110800000D03*
X173900000Y-108260000D03*
X173900000Y-105720000D03*
X173900000Y-103180000D03*
X173900000Y-100640000D03*
X173900000Y-98100000D03*
X173900000Y-95560000D03*
X173900000Y-93020000D03*
X173900000Y-90480000D03*
X173900000Y-87940000D03*
X173900000Y-85400000D03*
%TD*%
D15*
%TO.C,mouse-bite-1mm-slot*%
X111600000Y-62500000D03*
X111600000Y-64000000D03*
X112400000Y-62250000D03*
X112400000Y-64250000D03*
X113100000Y-62250000D03*
X113100000Y-64250000D03*
X113900000Y-62500000D03*
X113900000Y-64000000D03*
%TD*%
D12*
%TO.C,SW1*%
X181000000Y-104475000D03*
D13*
X181000000Y-107015000D03*
%TD*%
D10*
%TO.C,U2*%
X143000000Y-86800000D03*
D14*
X143000000Y-84260000D03*
X143000000Y-81720000D03*
X143000000Y-79180000D03*
X135380000Y-79180000D03*
X135380000Y-81720000D03*
X135380000Y-84260000D03*
X135380000Y-86800000D03*
%TD*%
D10*
%TO.C,C6*%
X135250000Y-94500000D03*
D11*
X135250000Y-92000000D03*
%TD*%
D10*
%TO.C,C10*%
X141750000Y-134500000D03*
D11*
X141750000Y-132000000D03*
%TD*%
D20*
%TO.C,J4*%
X182500000Y-134250000D03*
D21*
X187500000Y-134250000D03*
%TD*%
M02*
