%TF.GenerationSoftware,KiCad,Pcbnew,7.0.7*%
%TF.CreationDate,2024-04-29T13:44:55+02:00*%
%TF.ProjectId,IsItOpen,49734974-4f70-4656-9e2e-6b696361645f,rev?*%
%TF.SameCoordinates,Original*%
%TF.FileFunction,Soldermask,Top*%
%TF.FilePolarity,Negative*%
%FSLAX46Y46*%
G04 Gerber Fmt 4.6, Leading zero omitted, Abs format (unit mm)*
G04 Created by KiCad (PCBNEW 7.0.7) date 2024-04-29 13:44:55*
%MOMM*%
%LPD*%
G01*
G04 APERTURE LIST*
G04 Aperture macros list*
%AMRoundRect*
0 Rectangle with rounded corners*
0 $1 Rounding radius*
0 $2 $3 $4 $5 $6 $7 $8 $9 X,Y pos of 4 corners*
0 Add a 4 corners polygon primitive as box body*
4,1,4,$2,$3,$4,$5,$6,$7,$8,$9,$2,$3,0*
0 Add four circle primitives for the rounded corners*
1,1,$1+$1,$2,$3*
1,1,$1+$1,$4,$5*
1,1,$1+$1,$6,$7*
1,1,$1+$1,$8,$9*
0 Add four rect primitives between the rounded corners*
20,1,$1+$1,$2,$3,$4,$5,0*
20,1,$1+$1,$4,$5,$6,$7,0*
20,1,$1+$1,$6,$7,$8,$9,0*
20,1,$1+$1,$8,$9,$2,$3,0*%
G04 Aperture macros list end*
%ADD10RoundRect,0.500000X-0.500000X-5.500000X0.500000X-5.500000X0.500000X5.500000X-0.500000X5.500000X0*%
%ADD11RoundRect,0.500000X-0.500000X-1.000000X0.500000X-1.000000X0.500000X1.000000X-0.500000X1.000000X0*%
%ADD12RoundRect,0.500000X-0.500000X-2.000000X0.500000X-2.000000X0.500000X2.000000X-0.500000X2.000000X0*%
%ADD13R,1.600000X1.600000*%
%ADD14C,1.600000*%
%ADD15RoundRect,0.250000X0.650000X-0.412500X0.650000X0.412500X-0.650000X0.412500X-0.650000X-0.412500X0*%
%ADD16RoundRect,0.250000X0.350000X0.450000X-0.350000X0.450000X-0.350000X-0.450000X0.350000X-0.450000X0*%
%ADD17C,3.000000*%
%ADD18R,1.500000X0.900000*%
%ADD19RoundRect,0.250000X0.412500X0.650000X-0.412500X0.650000X-0.412500X-0.650000X0.412500X-0.650000X0*%
%ADD20R,1.700000X1.700000*%
%ADD21O,1.700000X1.700000*%
%ADD22O,1.600000X1.600000*%
%ADD23RoundRect,0.250000X-0.650000X0.412500X-0.650000X-0.412500X0.650000X-0.412500X0.650000X0.412500X0*%
%ADD24RoundRect,0.250000X-0.450000X0.350000X-0.450000X-0.350000X0.450000X-0.350000X0.450000X0.350000X0*%
%ADD25C,0.500000*%
%ADD26C,3.200000*%
%ADD27RoundRect,0.250000X-0.412500X-0.650000X0.412500X-0.650000X0.412500X0.650000X-0.412500X0.650000X0*%
%ADD28C,1.620000*%
%ADD29R,2.000000X1.200000*%
%ADD30O,2.000000X1.200000*%
%ADD31RoundRect,0.150000X0.650000X0.150000X-0.650000X0.150000X-0.650000X-0.150000X0.650000X-0.150000X0*%
%ADD32R,2.500000X2.500000*%
%ADD33C,2.500000*%
G04 APERTURE END LIST*
D10*
%TO.C,J3*%
X192000000Y-55550000D03*
X187800000Y-55450000D03*
X183200000Y-55550000D03*
X116900000Y-55550000D03*
X112700000Y-55550000D03*
X108100000Y-55550000D03*
X108100000Y-55550000D03*
X192000000Y-55550000D03*
X187800000Y-55450000D03*
X183200000Y-55550000D03*
X112700000Y-55550000D03*
X116900000Y-55550000D03*
%TD*%
D11*
%TO.C,Je*%
X183050000Y-68000000D03*
X116750000Y-68000000D03*
D12*
X187650000Y-67000000D03*
X191850000Y-67000000D03*
X191850000Y-74000000D03*
X187650000Y-74000000D03*
X183050000Y-74000000D03*
X112550000Y-67000000D03*
X107950000Y-67000000D03*
X107950000Y-74000000D03*
X112550000Y-74000000D03*
X116750000Y-74000000D03*
X187650000Y-67000000D03*
D11*
X183050000Y-68000000D03*
X116750000Y-68000000D03*
D12*
X191850000Y-67000000D03*
X112550000Y-67000000D03*
X107950000Y-67000000D03*
X191850000Y-74000000D03*
X187650000Y-74000000D03*
X183050000Y-74000000D03*
X107950000Y-74000000D03*
X112550000Y-74000000D03*
X116750000Y-74000000D03*
%TD*%
D13*
%TO.C,C3*%
X128500000Y-137250000D03*
D14*
X128500000Y-134750000D03*
%TD*%
D15*
%TO.C,C7*%
X128250000Y-94875000D03*
X128250000Y-91750000D03*
%TD*%
D16*
%TO.C,R2*%
X129250000Y-130250000D03*
X127250000Y-130250000D03*
%TD*%
D13*
%TO.C,C8*%
X142500000Y-94500000D03*
D14*
X142500000Y-92000000D03*
%TD*%
D17*
%TO.C,TP2*%
X181000000Y-113000000D03*
%TD*%
D15*
%TO.C,C12*%
X197250000Y-45875000D03*
X197250000Y-42750000D03*
%TD*%
D18*
%TO.C,D4*%
X140450000Y-46400000D03*
X140450000Y-43100000D03*
X135550000Y-43100000D03*
X135550000Y-46400000D03*
%TD*%
D17*
%TO.C,TP8*%
X165750000Y-74750000D03*
%TD*%
D19*
%TO.C,C4*%
X141125000Y-113250000D03*
X138000000Y-113250000D03*
%TD*%
D17*
%TO.C,TP16*%
X192500000Y-44750000D03*
%TD*%
%TO.C,TP1*%
X187750000Y-80500000D03*
%TD*%
D13*
%TO.C,C1*%
X133250000Y-131000000D03*
D14*
X135750000Y-131000000D03*
%TD*%
D20*
%TO.C,J1*%
X197500000Y-104890000D03*
D21*
X197500000Y-107430000D03*
X197500000Y-109970000D03*
X197500000Y-112510000D03*
X197500000Y-115050000D03*
X197500000Y-117590000D03*
X197500000Y-120130000D03*
X197500000Y-122670000D03*
X197500000Y-125210000D03*
X197500000Y-127750000D03*
%TD*%
D17*
%TO.C,TP9*%
X123000000Y-100750000D03*
%TD*%
%TO.C,TP4*%
X193250000Y-125500000D03*
%TD*%
D13*
%TO.C,U3*%
X135380000Y-100130000D03*
D22*
X135380000Y-102670000D03*
X135380000Y-105210000D03*
X135380000Y-107750000D03*
X143000000Y-107750000D03*
X143000000Y-105210000D03*
X143000000Y-102670000D03*
X143000000Y-100130000D03*
%TD*%
D23*
%TO.C,C5*%
X131750000Y-81375000D03*
X131750000Y-84500000D03*
%TD*%
D20*
%TO.C,SW2*%
X188000000Y-104460000D03*
D21*
X188000000Y-107000000D03*
%TD*%
D24*
%TO.C,R3*%
X123500000Y-92500000D03*
X123500000Y-94500000D03*
%TD*%
D25*
%TO.C,mouse-bite-1mm-slot*%
X186600000Y-62500000D03*
X186600000Y-64000000D03*
X187400000Y-62250000D03*
X187400000Y-64250000D03*
X188100000Y-62250000D03*
X188100000Y-64250000D03*
X188900000Y-62500000D03*
X188900000Y-64000000D03*
%TD*%
D26*
%TO.C,H3*%
X196000000Y-79000000D03*
%TD*%
D18*
%TO.C,D1*%
X185450000Y-91150000D03*
X185450000Y-87850000D03*
X180550000Y-87850000D03*
X180550000Y-91150000D03*
%TD*%
D24*
%TO.C,R6*%
X189750000Y-96750000D03*
X189750000Y-98750000D03*
%TD*%
%TO.C,R4*%
X180750000Y-96750000D03*
X180750000Y-98750000D03*
%TD*%
D18*
%TO.C,D6*%
X188500000Y-46250000D03*
X188500000Y-42950000D03*
X183600000Y-42950000D03*
X183600000Y-46250000D03*
%TD*%
D17*
%TO.C,TP13*%
X128250000Y-101000000D03*
%TD*%
D18*
%TO.C,D5*%
X164750000Y-46500000D03*
X164750000Y-43200000D03*
X159850000Y-43200000D03*
X159850000Y-46500000D03*
%TD*%
D20*
%TO.C,LS1*%
X111250000Y-132960000D03*
D21*
X111250000Y-135500000D03*
%TD*%
D20*
%TO.C,SW3*%
X181000000Y-119975000D03*
D21*
X181000000Y-122515000D03*
%TD*%
D18*
%TO.C,D3*%
X117750000Y-46500000D03*
X117750000Y-43200000D03*
X112850000Y-43200000D03*
X112850000Y-46500000D03*
%TD*%
D26*
%TO.C,H1*%
X104000000Y-135000000D03*
%TD*%
D17*
%TO.C,TP11*%
X110750000Y-125500000D03*
%TD*%
D27*
%TO.C,C2*%
X117750000Y-137500000D03*
X120875000Y-137500000D03*
%TD*%
D17*
%TO.C,TP10*%
X130500000Y-120750000D03*
%TD*%
%TO.C,TP7*%
X159500000Y-74500000D03*
%TD*%
%TO.C,TP14*%
X171750000Y-75000000D03*
%TD*%
D26*
%TO.C,H2*%
X104000000Y-79000000D03*
%TD*%
D17*
%TO.C,TP6*%
X152750000Y-74500000D03*
%TD*%
D28*
%TO.C,RV1*%
X142250000Y-125000000D03*
X139750000Y-120000000D03*
X137250000Y-125000000D03*
%TD*%
D17*
%TO.C,TP15*%
X102750000Y-44500000D03*
%TD*%
%TO.C,TP3*%
X188000000Y-113250000D03*
%TD*%
D20*
%TO.C,SW4*%
X188000000Y-119710000D03*
D21*
X188000000Y-122250000D03*
%TD*%
D26*
%TO.C,H4*%
X196000000Y-135000000D03*
%TD*%
D29*
%TO.C,U1*%
X148500000Y-85400000D03*
D30*
X148500000Y-87940000D03*
X148500000Y-90480000D03*
X148500000Y-93020000D03*
X148500000Y-95560000D03*
X148500000Y-98100000D03*
X148500000Y-100640000D03*
X148500000Y-103180000D03*
X148500000Y-105720000D03*
X148500000Y-108260000D03*
X148500000Y-110800000D03*
X148500000Y-113340000D03*
X148500000Y-115880000D03*
X148500000Y-118420000D03*
X148500000Y-120960000D03*
X148500000Y-123500000D03*
X148500000Y-126040000D03*
X148500000Y-128580000D03*
X148500000Y-131120000D03*
X173896320Y-131117280D03*
X173896320Y-128577280D03*
X173900000Y-126040000D03*
X173900000Y-123500000D03*
X173900000Y-120960000D03*
X173900000Y-118420000D03*
X173900000Y-115880000D03*
X173900000Y-113340000D03*
X173900000Y-110800000D03*
X173900000Y-108260000D03*
X173900000Y-105720000D03*
X173900000Y-103180000D03*
X173900000Y-100640000D03*
X173900000Y-98100000D03*
X173900000Y-95560000D03*
X173900000Y-93020000D03*
X173900000Y-90480000D03*
X173900000Y-87940000D03*
X173900000Y-85400000D03*
%TD*%
D31*
%TO.C,U4*%
X122750000Y-134040000D03*
X122750000Y-132770000D03*
X122750000Y-131500000D03*
X122750000Y-130230000D03*
X115550000Y-130230000D03*
X115550000Y-131500000D03*
X115550000Y-132770000D03*
X115550000Y-134040000D03*
%TD*%
D25*
%TO.C,mouse-bite-1mm-slot*%
X111600000Y-62500000D03*
X111600000Y-64000000D03*
X112400000Y-62250000D03*
X112400000Y-64250000D03*
X113100000Y-62250000D03*
X113100000Y-64250000D03*
X113900000Y-62500000D03*
X113900000Y-64000000D03*
%TD*%
D17*
%TO.C,TP12*%
X105250000Y-125250000D03*
%TD*%
D16*
%TO.C,R1*%
X123250000Y-126750000D03*
X121250000Y-126750000D03*
%TD*%
D20*
%TO.C,SW1*%
X181000000Y-104475000D03*
D21*
X181000000Y-107015000D03*
%TD*%
D13*
%TO.C,U2*%
X143000000Y-86800000D03*
D22*
X143000000Y-84260000D03*
X143000000Y-81720000D03*
X143000000Y-79180000D03*
X135380000Y-79180000D03*
X135380000Y-81720000D03*
X135380000Y-84260000D03*
X135380000Y-86800000D03*
%TD*%
D27*
%TO.C,C9*%
X148250000Y-134750000D03*
X151375000Y-134750000D03*
%TD*%
D24*
%TO.C,R5*%
X185250000Y-96750000D03*
X185250000Y-98750000D03*
%TD*%
D13*
%TO.C,C6*%
X135250000Y-94500000D03*
D14*
X135250000Y-92000000D03*
%TD*%
D17*
%TO.C,TP5*%
X193250000Y-119250000D03*
%TD*%
%TO.C,TP17*%
X107500000Y-44500000D03*
%TD*%
D24*
%TO.C,R7*%
X194250000Y-96750000D03*
X194250000Y-98750000D03*
%TD*%
D18*
%TO.C,D2*%
X195000000Y-91250000D03*
X195000000Y-87950000D03*
X190100000Y-87950000D03*
X190100000Y-91250000D03*
%TD*%
D13*
%TO.C,C10*%
X141750000Y-134500000D03*
D14*
X141750000Y-132000000D03*
%TD*%
D19*
%TO.C,C11*%
X182125000Y-80750000D03*
X179000000Y-80750000D03*
%TD*%
D32*
%TO.C,J4*%
X182500000Y-134250000D03*
D33*
X187500000Y-134250000D03*
%TD*%
M02*
