%TF.GenerationSoftware,KiCad,Pcbnew,7.0.7*%
%TF.CreationDate,2024-04-29T13:44:56+02:00*%
%TF.ProjectId,IsItOpen,49734974-4f70-4656-9e2e-6b696361645f,rev?*%
%TF.SameCoordinates,Original*%
%TF.FileFunction,Profile,NP*%
%FSLAX46Y46*%
G04 Gerber Fmt 4.6, Leading zero omitted, Abs format (unit mm)*
G04 Created by KiCad (PCBNEW 7.0.7) date 2024-04-29 13:44:56*
%MOMM*%
%LPD*%
G01*
G04 APERTURE LIST*
%TA.AperFunction,Profile*%
%ADD10C,0.100000*%
%TD*%
%TA.AperFunction,Profile*%
%ADD11C,0.150000*%
%TD*%
G04 APERTURE END LIST*
D10*
X100000000Y-64000000D02*
X105500000Y-64000000D01*
X194250000Y-62500000D02*
X189250000Y-62500000D01*
D11*
X100000000Y-64000000D02*
X100000000Y-139000000D01*
D10*
X114250000Y-62500000D02*
X119000000Y-62500000D01*
D11*
X200000000Y-40000000D02*
X100000000Y-40000000D01*
D10*
X105500000Y-64000000D02*
X111250000Y-64000000D01*
D11*
X119000000Y-54500000D02*
X181000000Y-54500000D01*
D10*
X189250000Y-62500000D02*
X189250000Y-64000000D01*
X200000000Y-139000000D02*
X100000000Y-139000000D01*
D11*
X119000000Y-62500000D02*
X119000000Y-54500000D01*
D10*
X111250000Y-62500000D02*
X105750000Y-62500000D01*
X114250000Y-62500000D02*
X114250000Y-64000000D01*
D11*
X100000000Y-54500000D02*
X100000000Y-40000000D01*
D10*
X114250000Y-64000000D02*
X186250000Y-64000000D01*
D11*
X105750000Y-62500000D02*
X105750000Y-54500000D01*
X181000000Y-62500000D02*
X181000000Y-54500000D01*
X105750000Y-54500000D02*
X100000000Y-54500000D01*
D10*
X186250000Y-62500000D02*
X186250000Y-64000000D01*
D11*
X200000000Y-54500000D02*
X200000000Y-40000000D01*
D10*
X111250000Y-62500000D02*
X111250000Y-64000000D01*
D11*
X194250000Y-62500000D02*
X194250000Y-54500000D01*
X194250000Y-54500000D02*
X200000000Y-54500000D01*
D10*
X189250000Y-64000000D02*
X200000000Y-64000000D01*
X186250000Y-62500000D02*
X181000000Y-62500000D01*
X200000000Y-64000000D02*
X200000000Y-139000000D01*
%TO.C,Je*%
X104850000Y-71350000D02*
X119850000Y-71350000D01*
X119850000Y-71350000D02*
X119850000Y-69650000D01*
X119850000Y-69650000D02*
X104850000Y-69650000D01*
X104850000Y-69650000D02*
X104850000Y-71350000D01*
X179850000Y-71350000D02*
X194850000Y-71350000D01*
X194850000Y-71350000D02*
X194850000Y-69650000D01*
X194850000Y-69650000D02*
X179850000Y-69650000D01*
X179850000Y-69650000D02*
X179850000Y-71350000D01*
%TD*%
M02*
