<?xml version="1.0" encoding="UTF-8" standalone="no"?>
<!-- Created with Inkscape (http://www.inkscape.org/) -->

<svg
   xmlns:dc="http://purl.org/dc/elements/1.1/"
   xmlns:cc="http://creativecommons.org/ns#"
   xmlns:rdf="http://www.w3.org/1999/02/22-rdf-syntax-ns#"
   xmlns:svg="http://www.w3.org/2000/svg"
   xmlns="http://www.w3.org/2000/svg"
   xmlns:sodipodi="http://sodipodi.sourceforge.net/DTD/sodipodi-0.dtd"
   xmlns:inkscape="http://www.inkscape.org/namespaces/inkscape"
   width="370"
   height="100"
   id="svg3389"
   version="1.1"
   inkscape:version="0.48.0 r9654"
   sodipodi:docname="New document 3">
  <defs
     id="defs3391" />
  <sodipodi:namedview
     id="base"
     pagecolor="#ffffff"
     bordercolor="#666666"
     borderopacity="1.0"
     inkscape:pageopacity="0.0"
     inkscape:pageshadow="2"
     inkscape:zoom="1"
     inkscape:cx="124.57175"
     inkscape:cy="96.862703"
     inkscape:document-units="px"
     inkscape:current-layer="layer1"
     showgrid="false"
     inkscape:window-width="1229"
     inkscape:window-height="725"
     inkscape:window-x="0"
     inkscape:window-y="52"
     inkscape:window-maximized="0" />
  <metadata
     id="metadata3394">
    <rdf:RDF>
      <cc:Work
         rdf:about="">
        <dc:format>image/svg+xml</dc:format>
        <dc:type
           rdf:resource="http://purl.org/dc/dcmitype/StillImage" />
        <dc:title></dc:title>
      </cc:Work>
    </rdf:RDF>
  </metadata>
  <g
     inkscape:label="Layer 1"
     inkscape:groupmode="layer"
     id="layer1"
     transform="translate(0,-952.36217)">
    <path
       inkscape:connector-curvature="0"
       style="fill:#000000"
       d="m 333.51458,1044.6468 c -0.0211,-0.021 -1.16749,-0.1956 -2.54759,-0.3902 -2.294,-0.3232 -2.92287,-0.3564 -7.32974,-0.387 -4.42401,-0.03 -5.11919,-0.067 -8.45234,-0.4498 -9.19281,-1.054 -10.21633,-1.1071 -21.45458,-1.1124 l -10.16281,0 -0.53465,0.6138 -0.53466,0.6138 -1.86557,-8e-4 c -1.55961,-6e-4 -2.18151,0.063 -3.79185,0.3951 -1.78136,0.3664 -2.13458,0.3962 -4.69617,0.3962 -1.52348,0 -2.91547,-0.056 -3.09335,-0.1229 -0.24357,-0.093 -0.36071,-0.2801 -0.47452,-0.7594 -0.17843,-0.7515 -0.25191,-3.1277 -0.11209,-3.6254 0.0804,-0.286 0.004,-0.4656 -0.43125,-1.012 l -0.52894,-0.6643 -0.75735,0.3852 c -1.32754,0.6751 -1.55521,0.9533 -1.87786,2.2943 -0.18071,0.751 -0.45724,1.463 -0.75651,1.9479 l -0.47171,0.7642 -7.58924,0 c -6.52411,0 -7.57908,-0.026 -7.51681,-0.1887 0.0398,-0.1038 0.10952,-0.386 0.15489,-0.6273 l 0.0824,-0.4386 -1.75858,0.038 c -1.68497,0.037 -2.19765,0.1266 -3.99041,0.698 -0.21062,0.067 -1.63388,0.122 -3.16285,0.122 -2.77024,0 -2.78445,-8e-4 -4.06807,-0.4222 l -1.28812,-0.4222 -0.0392,-0.5088 -0.0392,-0.5088 -4.30285,-0.015 -4.30286,-0.015 -0.73432,0.5544 -0.73431,0.5545 -6.18857,-0.038 -6.18856,-0.038 -1.05654,-0.3501 c -0.60566,-0.2006 -1.81741,-0.4426 -2.83945,-0.567 -0.9806,-0.1194 -2.46636,-0.3011 -3.30168,-0.4036 -0.83534,-0.1026 -2.06038,-0.2527 -2.72234,-0.3335 -0.80529,-0.098 -5.30614,-0.1472 -13.6011,-0.1476 l -12.39755,-5e-4 -0.27094,0.3399 -0.27098,0.3397 -4.13531,0 c -4.02491,0 -4.16933,-0.01 -5.40979,-0.3399 -1.13419,-0.3027 -1.52168,-0.3399 -3.51965,-0.3381 -2.37389,0 -6.81587,0.3308 -7.59388,0.5619 -0.25421,0.075 -2.00741,0.1617 -3.89598,0.1913 -1.88858,0.029 -3.70119,0.1091 -4.02806,0.1763 -0.32687,0.067 -1.04003,0.1913 -1.58481,0.2758 -0.54479,0.084 -1.23393,0.207 -1.53146,0.2722 -0.29749,0.065 -1.54553,0.1133 -2.77341,0.1066 -1.69852,-0.01 -2.40405,0.039 -2.9498,0.2014 -0.39452,0.1173 -0.98933,0.2132 -1.32177,0.2132 -0.51909,0 -1.62414,0.3255 -3.09684,0.9121 -0.20984,0.083 -0.40703,0.1263 -0.43825,0.095 -0.0312,-0.031 0.15789,-0.338 0.42022,-0.6816 0.69065,-0.9048 0.91631,-1.3804 0.7391,-1.5576 -0.10548,-0.1055 -0.26194,-0.096 -0.57254,0.038 -0.26291,0.1126 -1.24047,0.2197 -2.54045,0.2786 -1.44896,0.065 -2.62855,0.2037 -3.75322,0.4396 l -1.64012,0.3441 -15.41117,0 -15.41117,0 -0.51369,0.3428 c -0.28251,0.1885 -0.751406,0.5688 -1.041936,0.845 -0.4982,0.4737 -0.57841,0.5031 -1.40908,0.517 -0.92862,0.016 -3.37518,-0.5189 -3.89194,-0.8502 -0.21988,-0.141 -0.39543,-0.1499 -0.79241,-0.04 -1.21687,0.3359 -2.826124,-0.1456 -3.809552,-1.1401 l -0.530349,-0.5363 -1.188623,0.098 c -0.653727,0.054 -1.456028,0.164 -1.7829,0.2457 -0.326873,0.081 -1.901777,0.1749 -3.499796,0.207 -2.217137,0.045 -3.155782,0.1174 -3.962022,0.3067 -1.02751,0.2413 -1.623558,0.3411 -4.094093,0.6855 -0.832215,0.116 -3.772447,0.175 -9.806005,0.1969 -4.739583,0.017 -8.617402,0.01 -8.617402,-0.018 0,-0.027 0.184472,-0.3458 0.40994,-0.7085 0.225477,-0.3627 0.370544,-0.7233 0.322379,-0.8012 -0.06009,-0.098 -1.788907,-0.1417 -5.500436,-0.1417 -4.469054,0 -5.567255,0.036 -6.298416,0.2085 -0.487073,0.1146 -1.361028,0.3208 -1.942126,0.458 -3.412293,0.806 -3.535196,0.824 -6.339239,0.9229 -2.263546,0.08 -3.052646,0.1612 -4.292202,0.4422 -1.205176,0.2732 -1.866449,0.3444 -3.202625,0.3449 l -1.683869,7e-4 0,-1.3045 c 0,-0.9984 -0.04652,-1.3431 -0.198091,-1.469 -0.135203,-0.1121 -0.19811,-0.4122 -0.19811,-0.9447 0,-0.5718 -0.05294,-0.8007 -0.198092,-0.8564 -0.139293,-0.054 -0.19811,-0.2707 -0.19811,-0.7317 0,-0.4067 -0.07521,-0.7308 -0.198092,-0.8538 -0.119815,-0.1198 -0.198118,-0.443 -0.198118,-0.8179 0,-0.6103 0.0094,-0.624 0.627317,-0.9108 0.732472,-0.3398 2.985049,-1.0919 3.270637,-1.0919 0.107879,0 0.196137,-0.031 0.196137,-0.068 0,-0.038 -0.289291,-0.6468 -0.642857,-1.3537 -0.708551,-1.4167 -1.178982,-2.7009 -1.668184,-4.5542 -0.17734,-0.6717 -0.494975,-1.6374 -0.705864,-2.1458 -0.210897,-0.5086 -0.36163,-0.9628 -0.334959,-1.0097 0.0753,-0.132 2.345169,-0.9868 4.31814,-1.6262 0.981227,-0.318 1.900641,-0.6406 2.043146,-0.7168 0.142514,-0.076 0.688107,-0.17 1.212442,-0.2083 1.219935,-0.089 2.117068,-0.4654 2.118189,-0.889 0,-0.1675 0.09617,-0.4828 0.212699,-0.7007 0.30541,-0.5711 0.348951,-4.9323 0.05068,-5.0703 -0.388255,-0.1797 -4.032768,-0.053 -4.439575,0.1547 -0.281147,0.1434 -0.81321,0.1899 -2.031743,0.1777 l -1.650835,-0.017 -0.02299,-0.8328 c -0.01285,-0.4646 -0.100395,-0.9261 -0.198092,-1.0438 -0.138794,-0.1672 -0.177439,-1.336 -0.1862,-5.6312 -0.0081,-4.0025 -0.05131,-5.4336 -0.165086,-5.4715 -0.08471,-0.028 -0.154025,-0.1601 -0.154025,-0.293 0,-0.4128 1.553119,-2.371 3.195194,-4.02854 l 1.570062,-1.58481 -0.03846,-1.12258 -0.03846,-1.12256 1.883192,-0.13207 c 1.723926,-0.12091 1.919374,-0.16096 2.311169,-0.47365 0.627652,-0.50091 0.991354,-0.67378 1.088119,-0.51722 0.09991,0.16166 1.739401,0.17796 1.838094,0.0183 0.100603,-0.16278 -0.133419,-3.83841 -0.514053,-8.07404 -0.179521,-1.9975 -0.366427,-4.35713 -0.415361,-5.24363 -0.08399,-1.52084 -0.108955,-1.63092 -0.443334,-1.95127 -0.472252,-0.45244 -1.407368,-0.59535 -3.902047,-0.5963 l -1.984175,-6.9e-4 -0.437117,-2.1461 c -0.240401,-1.1803 -0.468287,-2.27975 -0.506397,-2.44319 l -0.06933,-0.29716 3.164045,0 3.164035,0 0.08208,-1.35369 c 0.269164,-4.43803 2.496608,-8.3747 5.429402,-9.59562 2.868129,-1.194 5.433428,-1.41924 10.738534,-0.94287 1.580433,0.14192 3.625895,0.29618 4.545463,0.34278 l 1.671959,0.0847 -0.261588,0.94394 c -0.553712,1.99819 -1.76657,3.52228 -3.179855,3.9959 -1.077159,0.36097 -2.564159,0.30886 -3.925731,-0.13758 -1.098862,-0.3603 -1.162548,-0.36567 -3.765044,-0.3166 -2.448199,0.0462 -2.681939,0.0717 -3.108386,0.33929 -0.253606,0.15915 -0.650315,0.37632 -0.881548,0.48261 -0.701475,0.3224 -0.863166,0.82725 -1.006441,3.14222 -0.07041,1.13836 -0.09437,2.15761 -0.05312,2.26501 0.10901,0.2841 2.245717,0.74986 3.439978,0.74986 0.55152,0 2.356783,-0.11461 4.0117,-0.25471 1.654917,-0.14008 3.618104,-0.29138 4.362639,-0.3362 l 1.35369,-0.0815 0,2.64739 0,2.6474 -3.301699,0 -3.301681,0 0,-0.5121 c 0,-0.62389 -0.25699,-0.89238 -0.651888,-0.68103 -0.219206,0.11732 -0.272585,0.27428 -0.272585,0.80157 l 0,0.6557 -0.660332,0 c -0.816396,0 -0.838641,-0.13416 -0.197376,-1.18982 0.619551,-1.01986 0.890045,-1.81665 0.793805,-2.33818 -0.06498,-0.35214 -0.16181,-0.4476 -0.568491,-0.56056 -0.269588,-0.0748 -0.531304,-0.13647 -0.581569,-0.13687 -0.05031,-3.6e-4 -0.495998,0.75701 -0.990513,1.68312 -1.057727,1.98094 -1.783711,2.79733 -2.808053,3.15774 l -0.690651,0.24301 0.07585,1.05654 c 0.04172,0.5811 0.114803,3.77548 0.162426,7.09862 l 0.08661,6.04209 -1.272854,0 -1.272852,0 0,1.03934 c 0,1.23443 0.273046,8.52051 0.321138,8.56971 0.01837,0.019 1.721663,-0.042 3.785127,-0.1341 3.19164,-0.1432 3.745152,-0.1976 3.707593,-0.3644 -0.133599,-0.5931 -0.280149,-3.5513 -0.282883,-5.70981 l -0.0027,-2.47627 1.617829,-4.9e-4 c 1.393674,-3.7e-4 1.678847,-0.0376 2.058297,-0.26904 l 0.440484,-0.26854 -0.05177,0.72696 c -0.03809,0.53506 -0.0036,0.74551 0.131618,0.79729 0.100846,0.0388 1.028386,0.0703 2.061191,0.0703 2.261338,0 2.588296,0.10243 2.589817,0.8113 9.26e-4,0.28421 0.07494,0.50946 0.181557,0.5504 0.132205,0.0507 0.187131,0.39912 0.205204,1.30178 0.01357,0.67788 0.07784,1.28587 0.142741,1.35106 0.06489,0.0652 1.086906,0.11418 2.271058,0.1088 1.974525,-0.009 2.156807,-0.0296 2.198836,-0.25061 0.02524,-0.13247 0.08598,-0.28385 0.135148,-0.3364 0.08498,-0.0909 2.294361,-0.228 3.847083,-0.23871 l 0.726372,-0.005 -0.950709,-0.37514 c -0.522887,-0.20631 -1.414334,-0.64725 -1.981015,-0.97984 -3.12874,-1.8363 -3.784521,-3.09241 -3.941976,-7.55047 l -0.07467,-2.11308 2.305684,-1.81779 c 1.268129,-0.9998 2.645765,-2.0226 3.061416,-2.27289 1.376857,-0.8291 3.357601,-1.31548 3.986503,-0.9789 0.325365,0.17413 0.36324,0.15102 1.109712,-0.67676 0.425072,-0.47137 0.773841,-0.78274 0.775037,-0.69196 0.0019,0.1291 1.079864,0.16509 4.944633,0.16509 l 4.942452,0 -0.468033,-1.08 -0.468015,-1.08001 0.444231,-0.36257 c 0.244339,-0.19942 0.414908,-0.38689 0.37906,-0.41659 -0.158795,-0.13157 -4.107188,-1.55016 -4.838692,-1.73845 -1.111505,-0.28611 -2.223752,-0.26405 -2.933852,0.0582 -0.31664,0.14367 -0.624955,0.26123 -0.685157,0.26123 -0.06018,0 -0.301218,-0.26706 -0.53562,-0.59345 l -0.426176,-0.59791 -0.232385,0.38214 c -0.461571,0.75899 -1.596334,1.39066 -3.84234,2.13881 -1.755268,0.5847 -2.780506,1.05133 -3.243968,1.47646 -0.163139,0.14964 -0.319628,0.24709 -0.347728,0.21653 -0.02806,-0.0305 -0.556752,-1.13754 -1.174766,-2.46 -1.299877,-2.78151 -1.378324,-2.36449 0.634965,-3.37551 5.423581,-2.72357 13.261169,-3.11592 18.567513,-0.92945 1.681742,0.69296 3.413772,1.73574 3.576206,2.15309 0.397656,1.02169 0.515359,2.09466 0.836665,7.6269 l 0.07865,1.3537 -0.372015,0.002 c -0.559619,0.003 -0.966318,0.14091 -0.966318,0.32837 0,0.18615 0.405891,0.32562 0.955674,0.32837 l 0.361389,0.002 0.03486,4.32522 0.03486,4.3252 0.726381,0.24359 c 0.507099,0.17004 1.294487,0.26559 2.608333,0.31655 1.035078,0.0402 1.880408,0.1088 1.878538,0.15261 -0.002,0.0438 -0.11036,0.80486 -0.24107,1.69119 l -0.23766,1.61154 0.60428,0.0392 c 0.33234,0.0215 1.07969,-0.003 1.66079,-0.0543 1.19969,-0.10628 3.67935,-0.23541 4.53387,-0.23611 l 0.57186,-4.9e-4 -0.83599,-0.7152 c -2.81763,-2.41052 -4.98676,-6.40646 -4.99416,-9.20011 -8.4e-4,-0.4821 -0.11893,-1.02451 -0.34052,-1.56982 -0.18621,-0.45826 -0.29019,-0.87874 -0.23111,-0.93442 0.13138,-0.12379 1.88592,-0.60372 2.63091,-0.71963 0.49557,-0.0771 0.5732,-0.0478 0.89817,0.33834 0.31627,0.37585 0.39163,0.40641 0.67918,0.27539 0.29411,-0.13402 0.32344,-0.22393 0.32344,-0.99175 l 0,-0.8444 -0.49525,-0.0762 c -0.2724,-0.042 -1.01527,-0.11712 -1.65085,-0.1671 l -1.15558,-0.0908 0,-0.62826 c 0,-0.86131 0.41907,-2.1445 1.03072,-3.15609 0.50355,-0.83274 4.587956,-5.39429 4.847686,-5.41395 0.0733,-0.006 0.53213,0.25735 1.01937,0.5842 0.48725,0.32687 0.90966,0.59432 0.93868,0.59432 0.0291,0 0.0858,-0.24703 0.12643,-0.54897 0.11494,-0.85677 0.58538,-1.21213 2.87156,-2.169 1.76548,-0.73887 2.13285,-0.84779 2.85936,-0.84779 l 0.83361,0 0,0.45147 c 0,0.3735 -0.0797,0.50079 -0.46225,0.73713 -0.25421,0.15713 -0.46221,0.31936 -0.46221,0.36051 0,0.16701 2.14974,-0.11736 3.69787,-0.48917 2.39696,-0.57563 2.99011,-0.5183 4.21288,0.40718 l 0.67134,0.50809 0.19786,-0.30199 c 0.10883,-0.16608 0.259,-0.62433 0.33371,-1.01832 0.19506,-1.02853 0.28356,-1.0843 1.45954,-0.91999 0.54049,0.0755 1.48786,0.27902 2.10525,0.45224 0.61743,0.17322 1.39003,0.36643 1.7169,0.42936 l 0.59429,0.11442 -0.75938,0.43663 -0.75939,0.43664 0.004,0.94778 c 0.004,0.95681 0.0545,1.56355 0.45946,5.4851 0.26711,2.58629 0.20545,3.20691 -0.37645,3.78882 -0.50834,0.50834 -1.51506,0.72051 -3.41871,0.72051 l -1.26344,0 -0.0951,-0.95748 c -0.19493,-1.96291 -0.86718,-3.48729 -2.14785,-4.87058 -0.78432,-0.84717 -1.39274,-1.21082 -2.86846,-1.71444 -1.28928,-0.44002 -3.3906,-0.44041 -4.81478,-6.9e-4 -1.90115,0.58668 -4.29861,2.02708 -5.89686,3.54283 l -0.80656,0.76493 -0.835126,3.38499 -0.83512,3.38499 0.23403,0.86456 c 0.45015,1.66296 1.796026,3.47557 3.464866,4.66644 1.27078,0.90682 1.9761,1.10387 3.951,1.10387 1.3756,0 2.072,0.0809 3.99832,0.46485 l 2.33264,0.46485 1.25636,-0.51352 c 0.69102,-0.28243 1.4369,-0.55316 1.65753,-0.60162 0.48504,-0.10653 3.70836,-3.26819 3.5663,-3.49806 -0.11788,-0.19075 0.25445,-0.1897 0.62712,0.002 0.47062,0.24179 1.00093,0.78404 1.7467,1.78603 0.38633,0.51904 0.914,1.10512 1.17264,1.30238 l 0.47025,0.35868 -1.60976,1.12836 c -1.01235,0.70961 -1.63021,1.06699 -1.66488,0.96297 -0.0763,-0.22897 -0.82097,-1.06425 -0.94877,-1.06425 -0.20623,0 -0.94307,0.78803 -0.86099,0.92081 0.0462,0.0747 0.28487,0.13573 0.53053,0.13573 0.42417,0 0.71164,0.19082 0.54243,0.36004 -0.0431,0.043 -1.13365,-0.0211 -2.42346,-0.14255 -4.64322,-0.4373 -7.36785,-0.17323 -10.14622,0.98341 -2.93277,1.22093 -5.16022,5.15756 -5.42939,9.59566 l -0.082,1.3537 -3.164026,0 -3.16404,0 0.0694,0.2971 c 0.0381,0.1634 0.266,1.2629 0.5064,2.4433 l 0.4371,2.1461 1.98417,6e-4 c 2.495666,7e-4 3.429746,0.1438 3.902596,0.5969 0.33659,0.3224 0.35968,0.4265 0.44753,2.0172 0.0509,0.9225 0.23552,3.2523 0.41016,5.1772 0.17465,1.9249 0.37999,4.5397 0.4563,5.8109 0.12516,2.0851 0.11767,2.3267 -0.0766,2.4693 -0.41155,0.3019 -1.98108,0.5537 -4.456046,0.7148 -1.86844,0.1216 -2.50622,0.2071 -2.55825,0.3427 -0.0381,0.099 0.0716,1.2929 0.24379,2.6521 l 0.31311,2.4715 12.546406,0 12.54642,0 -0.0349,-1.8046 c -0.0244,-1.2639 -0.10504,-2.0354 -0.26908,-2.5753 l -0.23418,-0.7707 -0.91953,-0.032 c -0.50573,-0.018 -2.76187,-0.092 -5.01361,-0.1648 -3.56047,-0.115 -7.1199,-0.4072 -7.31308,-0.6004 -0.034,-0.034 -0.10751,-2.4537 -0.16325,-5.377 -0.0557,-2.9233 -0.12829,-6.388 -0.16123,-7.6994 l -0.06,-2.3845 0.66427,-0.2359 c 0.99614,-0.3538 1.73534,-1.1911 2.78167,-3.1507 0.4945,-0.9261 0.94024,-1.6835 0.99051,-1.6831 0.0502,4e-4 0.31196,0.062 0.58157,0.1369 0.40669,0.1129 0.50351,0.2084 0.56849,0.5605 0.0963,0.5216 -0.17427,1.3183 -0.7938,2.3382 -0.64127,1.0557 -0.61902,1.1898 0.19737,1.1898 l 0.66034,0 0,-0.6557 c 0,-0.5273 0.0534,-0.6842 0.27259,-0.8015 0.3949,-0.2114 0.65188,0.057 0.65188,0.681 l 0,0.5121 3.30169,0 3.30169,0 0,-2.6474 0,-2.6474 -1.35369,0.082 c -0.74454,0.045 -2.70771,0.1961 -4.36264,0.3362 -1.65492,0.1401 -3.46019,0.2547 -4.01172,0.2547 -1.19423,0 -3.33093,-0.4658 -3.43995,-0.7499 -0.0412,-0.1073 -0.0173,-1.1266 0.0531,-2.265 0.14326,-2.3149 0.30497,-2.8198 1.00642,-3.1422 0.23125,-0.1063 0.62796,-0.3234 0.88157,-0.4826 0.42644,-0.2676 0.66018,-0.2931 3.10838,-0.3393 2.6025,-0.049 2.66619,-0.044 3.76504,0.3166 1.36157,0.4465 2.84858,0.4986 3.92574,0.1376 0.89787,-0.3009 1.9744,-1.2811 2.50932,-2.28469 0.57277,-1.07461 0.95234,-2.50855 0.79036,-2.98579 -0.0693,-0.20428 -0.10503,-0.3923 -0.0793,-0.41779 0.0576,-0.0571 2.0174,-0.33333 2.36498,-0.33333 0.1513,0 0.28185,0.11879 0.32655,0.29715 0.0722,0.28767 0.12104,0.29637 1.53465,0.2728 0.80306,-0.0134 1.47947,-0.0436 1.50307,-0.0672 0.0237,-0.0237 -0.0784,-0.39896 -0.22655,-0.8341 -0.32176,-0.94457 -0.28273,-2.01911 0.16303,-4.48906 0.31756,-1.7596 0.29394,-2.69353 -0.0919,-3.63186 -0.21046,-0.51187 -0.24104,-0.92456 -0.2204,-2.97545 0.0132,-1.30963 0.11865,-3.59769 0.23437,-5.08459 0.45556,-5.85356 0.41202,-8.02389 -0.21049,-10.48908 -0.39656,-1.57051 -0.27692,-1.47653 -1.9905,-1.56347 -1.79695,-0.0911 -2.41368,-0.25722 -2.90375,-0.78183 -0.41368,-0.44284 -0.79985,-1.59432 -0.81958,-2.44373 -0.0205,-0.88409 0.1744,-0.98982 2.05928,-1.11691 1.89956,-0.12809 2.32909,-0.24708 2.86295,-0.79314 l 0.39549,-0.40463 2.48532,0.28294 c 1.36693,0.15562 2.60963,0.31009 2.76158,0.34326 0.26914,0.0587 0.27835,0.14956 0.3587,3.52981 0.0716,3.01446 0.33561,6.9133 0.55859,8.25001 l 0.0704,0.42228 1.27581,-0.65548 c 2.97006,-1.52594 6.55048,-2.18765 10.0835,-1.86353 1.99324,0.18285 2.78638,0.46561 3.71332,1.3238 1.49271,1.38197 2.45268,3.21344 3.02437,5.7699 0.27946,1.24973 0.29703,1.66795 0.34803,8.28274 0.0494,6.41198 0.0713,6.9669 0.27549,6.97064 1.16341,0.0214 2.2406,0.16337 3.9197,0.51677 1.08955,0.22933 2.12959,0.44708 2.31118,0.48388 0.29199,0.0592 0.37597,-0.0218 0.72636,-0.70002 0.21793,-0.42181 0.44477,-0.78807 0.50412,-0.81392 0.0594,-0.0258 0.26592,-0.18286 0.459,-0.34896 l 0.35109,-0.30199 -0.459,-0.19409 c -0.5644,-0.23866 -0.8446,-0.5527 -1.03052,-1.15502 -0.15339,-0.49683 -0.68313,-3.20194 -0.68313,-3.48832 0,-0.11164 0.25929,-0.20368 0.72957,-0.25895 0.40126,-0.0471 1.28401,-0.26335 1.96167,-0.48041 1.34289,-0.43018 2.1376,-0.4965 2.52808,-0.21098 0.1954,0.14287 0.263,0.39235 0.30426,1.12256 0.0606,1.07301 0.0696,1.06688 -1.15473,0.78426 -0.36843,-0.0851 -0.70663,-0.11786 -0.75155,-0.0729 -0.2123,0.21229 0.53683,1.31252 1.23321,1.81119 0.4021,0.28794 0.77869,0.49411 0.83688,0.45816 0.22758,-0.14066 0.40331,-1.49355 0.28125,-2.16519 l -0.12161,-0.66903 6.50386,0 6.50388,0 -0.19585,0.5613 c -0.19128,0.54823 -0.18062,2.00262 0.0182,2.48343 0.0685,0.16582 -0.11245,0.24828 -0.94286,0.42935 -0.82381,0.17962 -1.86629,0.23074 -5.25389,0.25763 -3.44699,0.0274 -4.30866,0.0706 -4.67362,0.23464 l -0.44743,0.20107 1.04527,0.49051 c 1.78242,0.83643 2.97756,1.06815 5.06466,0.98198 2.94903,-0.12175 5.88537,-1.00624 10.41685,-3.13777 1.49715,-0.70423 1.49996,-0.70643 1.20699,-0.94367 -0.16218,-0.13132 -0.50886,-0.23801 -0.77428,-0.23828 -0.26435,-2.5e-4 -0.66523,-0.11307 -0.89086,-0.25064 -0.26688,-0.16273 -0.47457,-0.20942 -0.59431,-0.1336 -0.27499,0.17412 -0.51425,0.14444 -0.51425,-0.0637 0,-0.34117 -0.91327,-0.99011 -1.76265,-1.25246 -0.46346,-0.14316 -1.31136,-0.32416 -1.8842,-0.40222 -0.86201,-0.11749 -4.61299,-0.40605 -5.27822,-0.40605 -0.12939,0 -0.18759,-0.15674 -0.18759,-0.50519 0,-0.4605 0.0733,-0.56478 0.82932,-1.17808 1.31167,-1.06421 2.16925,-2.03971 2.3353,-2.65638 0.0809,-0.30076 0.16742,-0.54684 0.19206,-0.54684 0.0246,0 0.26255,0.091 0.52863,0.20214 0.64384,0.26901 2.0273,0.53946 4.03877,0.78951 2.54696,0.31664 3.90949,0.82747 4.86838,1.82522 l 0.44412,0.46212 -0.1529,1.99872 c -0.18483,2.41664 -0.57723,4.05756 -1.37097,5.73315 -0.5769,1.21788 -0.59446,1.23826 -1.69056,1.96328 -2.666,1.76345 -5.72558,2.93442 -8.70146,3.3303 -0.89219,0.11868 -1.18004,0.19843 -0.99637,0.27604 0.14207,0.06 0.36003,0.19625 0.48437,0.30271 0.26702,0.22863 0.1583,0.62607 -0.3555,1.29967 -0.69106,0.9061 -0.37046,0.9138 1.34547,0.033 1.23187,-0.6325 1.34447,-0.6652 2.01134,-0.5831 0.68888,0.085 1.3246,-0.024 3.13517,-0.53736 0.55108,-0.15619 2.08197,-0.19043 8.51114,-0.19043 l 7.83922,0 -1.11537,-0.75635 c -2.20154,-1.49288 -4.67308,-4.25345 -5.76687,-6.44134 -0.69638,-1.39297 -1.22551,-3.37175 -1.22551,-4.58319 0,-0.27867 -0.14906,-0.87347 -0.33121,-1.3218 -0.18218,-0.44831 -0.28618,-0.85934 -0.23114,-0.91338 0.10699,-0.10499 1.88604,-0.56798 2.71013,-0.7053 0.44019,-0.0734 0.54028,-0.0354 0.87626,0.33248 0.32699,0.358 0.41784,0.39466 0.65867,0.26579 0.23927,-0.12807 0.27933,-0.26948 0.27933,-0.98641 l 0,-0.83692 -0.49526,-0.0762 c -0.2724,-0.042 -1.01526,-0.11714 -1.65085,-0.16712 l -1.15557,-0.0908 0,-0.48235 c 0,-1.06261 0.68613,-2.86694 1.50684,-3.96243 0.5257,-0.70177 4.31279,-4.76362 4.44133,-4.76362 0.0628,0 0.49683,0.26744 0.96442,0.59432 0.4676,0.32685 0.87886,0.59429 0.91392,0.59429 0.035,0 0.10175,-0.23755 0.14817,-0.52785 0.14054,-0.87893 0.59712,-1.22704 2.85483,-2.17677 1.7825,-0.7498 2.15375,-0.86109 2.87247,-0.86115 l 0.82543,-5e-5 0,0.52827 c 0,0.29389 -0.064,0.52827 -0.14428,0.52827 -0.0794,0 -0.30219,0.12691 -0.49524,0.28201 l -0.35098,0.28203 0.9905,-0.0718 c 0.54478,-0.0396 1.79281,-0.26154 2.77342,-0.49344 2.45018,-0.57948 3.25181,-0.48222 4.41043,0.53506 l 0.45198,0.39686 0.27618,-0.3511 c 0.15189,-0.19311 0.27617,-0.52328 0.27617,-0.73373 0,-0.21044 0.088,-0.59316 0.19546,-0.85045 l 0.19548,-0.46783 0.76203,0.0937 c 0.41909,0.0514 1.55913,0.29365 2.53339,0.53812 0.97429,0.24446 1.89546,0.44528 2.04705,0.44627 0.18053,0.002 -0.0143,0.1721 -0.5645,0.49525 l -0.84016,0.49346 0.0877,1.45275 c 0.0483,0.799 0.20342,2.54181 0.34491,3.8729 0.33148,3.11869 0.33129,3.92809 -8.4e-4,4.4732 -0.14155,0.23211 -0.3939,0.50984 -0.56082,0.61718 -0.45039,0.28964 -1.70457,0.47955 -3.16716,0.47955 l -1.2964,0 0,-0.63922 c 0,-0.83912 -0.4205,-2.45825 -0.8682,-3.34316 -0.54831,-1.08379 -1.46449,-2.19335 -2.21604,-2.68385 -0.37382,-0.24399 -1.274,-0.63307 -2.00037,-0.86463 -1.21865,-0.38848 -1.4176,-0.41526 -2.57532,-0.34654 -0.69005,0.0409 -1.6112,0.17149 -2.04704,0.29009 -1.85543,0.50486 -4.2075,1.8904 -5.87483,3.46068 l -0.94604,0.89096 -0.77923,3.10359 c -0.4286,1.70698 -0.78081,3.38366 -0.78272,3.72596 -0.007,1.31147 1.19433,3.46491 2.66395,4.77399 1.57854,1.40611 4.22167,2.69678 6.70307,3.27315 1.56264,0.36296 2.5542,0.25364 4.29867,-0.47397 0.65365,-0.27261 1.71206,-0.68747 2.35206,-0.92191 1.13228,-0.41477 1.20608,-0.46862 2.74202,-2.00055 0.86813,-0.86588 1.54984,-1.6488 1.51489,-1.73983 -0.10216,-0.26627 0.32311,-0.19139 0.9287,0.16352 0.3332,0.19526 0.83023,0.69853 1.2225,1.23786 0.69115,0.95024 1.56035,1.86685 1.77028,1.86685 0.29393,0 -0.0567,0.31291 -1.41477,1.26264 -1.62185,1.13417 -1.7861,1.22214 -1.7861,0.95652 0,-0.10249 -0.20802,-0.38793 -0.46224,-0.63435 l -0.46224,-0.44802 -0.47145,0.45512 c -0.47711,0.4606 -0.50615,0.61576 -0.25914,1.3848 0.16888,0.52574 -1.40647,1.96842 -3.09936,2.83835 -0.32687,0.16796 -1.01031,0.43196 -1.51878,0.58666 -0.8874,0.2699 -0.94716,0.3148 -1.49043,1.1189 -0.31129,0.4607 -0.54408,0.9034 -0.51731,0.9837 0.0339,0.1016 1.29911,0.1567 4.15016,0.181 3.43742,0.029 4.12791,0.067 4.26439,0.2311 0.10369,0.1249 0.39887,0.1962 0.81217,0.1962 l 0.6493,0 1.37928,-1.4197 c 1.27032,-1.3076 1.37271,-1.451 1.29613,-1.81592 -0.0458,-0.2179 -0.24289,-1.14784 -0.43813,-2.0665 l -0.35498,-1.6703 1.23048,-0.15488 c 0.67675,-0.0852 1.2809,-0.12372 1.34253,-0.0856 0.0616,0.0381 0.18856,0.41369 0.28208,0.83467 0.43931,1.97768 0.93448,2.70631 1.99363,2.93345 0.64596,0.13852 1.31483,0.0214 1.31483,-0.23025 0,-0.0637 -0.41361,-0.59365 -0.91913,-1.17768 l -0.91911,-1.06189 0.57376,-0.086 c 0.31554,-0.0473 0.67765,-0.20088 0.80464,-0.34121 0.22054,-0.2437 0.21713,-0.28652 -0.0759,-0.95168 -0.40249,-0.91344 -0.40278,-2.10942 -8.4e-4,-4.45179 0.35657,-2.07902 0.32363,-3.29744 -0.11623,-4.29963 -0.33609,-0.76571 -0.32657,-1.29725 0.14659,-8.18939 0.39362,-5.73357 0.26423,-8.60913 -0.49095,-10.90935 l -0.19965,-0.60808 -1.54756,-0.079 c -1.84704,-0.0943 -2.42708,-0.26038 -2.93651,-0.84059 -0.67002,-0.76312 -1.02222,-2.58098 -0.60939,-3.14554 0.15015,-0.20535 0.43546,-0.26316 1.68385,-0.3412 2.09662,-0.13107 2.43273,-0.21482 2.99656,-0.74658 l 0.48754,-0.45982 2.64134,0.29864 c 1.45275,0.16425 2.67824,0.33386 2.72334,0.37691 0.0451,0.0431 0.14853,1.89092 0.22985,4.10635 0.12273,3.34346 0.45715,7.87861 0.59083,8.01227 0.0189,0.0189 0.55721,-0.23734 1.19648,-0.56922 3.08172,-1.59984 6.54905,-2.25048 10.18314,-1.91087 2.32948,0.21771 2.72479,0.38145 3.96754,1.64349 1.62936,1.65465 2.43824,3.41789 2.91818,6.36125 0.1698,1.04145 0.23252,2.77211 0.29667,8.18573 l 0.0814,6.86506 2.44325,0.30153 c 1.34378,0.16583 2.51752,0.32852 2.60833,0.36149 0.30988,0.11257 0.18019,0.56542 -0.19989,0.69792 -0.20072,0.0699 -0.55195,0.28457 -0.78052,0.47688 l -0.41554,0.34966 0.3843,0.38432 c 0.27,0.26998 0.38448,0.51502 0.38481,0.82368 0,0.24166 0.11628,0.62925 0.25778,0.86132 l 0.25727,0.42193 -0.55492,0.0502 c -0.64359,0.0583 2.21397,0.10864 7.07857,0.12475 2.23272,0.007 3.45545,-0.0368 3.54691,-0.12832 0.0981,-0.0981 -0.0904,-0.18713 -0.63389,-0.29944 -2.02089,-0.41767 -4.12248,-1.37016 -5.99653,-2.71778 -1.50443,-1.08181 -2.1004,-2.24228 -2.3669,-4.60876 -0.0736,-0.65374 -0.13436,-1.23319 -0.13496,-1.28767 0,-0.0545 -0.29823,-0.099 -0.66142,-0.099 l -0.66033,0 0,-0.64383 c 0,-0.3541 -0.0371,-0.82955 -0.0825,-1.05655 l -0.0825,-0.41269 0.67684,0 c 0.57389,0 0.67685,-0.0376 0.67685,-0.24777 0,-0.39289 4.83834,-4.16571 6.14114,-4.78871 1.26548,-0.60514 2.83324,-0.92439 3.25279,-0.6624 0.35398,0.22108 0.72862,-0.0182 1.32182,-0.84418 0.24046,-0.33484 0.45854,-0.54484 0.4846,-0.46663 0.0327,0.0981 1.58029,0.14217 4.99782,0.14217 l 4.95044,0 -0.092,-0.28986 c -0.0506,-0.15941 -0.25854,-0.66109 -0.46214,-1.11483 l -0.37014,-0.82499 0.45325,-0.26742 c 0.24927,-0.14708 0.45195,-0.314 0.45036,-0.37092 -0.004,-0.13423 -3.97981,-1.5997 -4.97668,-1.83426 -1.09192,-0.25693 -2.11171,-0.2267 -2.79382,0.0829 -0.31665,0.14369 -0.62594,0.26124 -0.68731,0.26124 -0.0613,0 -0.31563,-0.26721 -0.56502,-0.59382 l -0.4534,-0.59381 -0.22949,0.36269 c -0.12621,0.1995 -0.35578,0.46894 -0.51011,0.59879 -0.47626,0.40062 -1.9428,1.0956 -3.12011,1.47855 -1.55902,0.50711 -2.32962,0.83787 -3.13974,1.34763 l -0.69647,0.43824 -0.11786,-0.2975 c -0.0647,-0.16365 -0.56434,-1.24743 -1.11003,-2.40843 -0.72127,-1.53456 -0.95461,-2.15614 -0.85466,-2.27658 0.23963,-0.28872 3.02973,-1.57805 4.33396,-2.00274 2.75702,-0.89779 5.61449,-1.27814 8.71645,-1.16023 3.4214,0.13006 5.84612,0.69571 8.32025,1.94095 2.01868,1.01603 2.29945,1.26767 2.55657,2.29128 0.27375,1.08972 0.43768,2.72512 0.54446,5.43131 0.0458,1.1622 0.11447,2.27651 0.15251,2.47626 0.0622,0.32665 0.0317,0.36338 -0.30453,0.36499 -0.56117,0.003 -0.968,0.14071 -0.968,0.32837 0,0.18615 0.4059,0.32562 0.95568,0.32837 l 0.36139,0.002 0.0349,4.32522 0.0349,4.3252 0.72638,0.2436 c 0.50505,0.16935 1.29235,0.26552 2.58411,0.31563 l 1.85775,0.0721 -0.17104,1.13709 c -0.20909,1.39358 -0.21402,1.59934 -0.0379,1.59934 0.0761,0 0.27227,0.14447 0.43593,0.32105 0.16364,0.17658 0.46637,0.36342 0.67273,0.41521 l 0.37522,0.0941 -0.0925,-1.04253 c -0.0508,-0.5734 -0.10382,-1.16135 -0.11775,-1.30655 -0.0239,-0.24999 0.10085,-0.27229 2.35186,-0.42004 2.6576,-0.17443 3.87796,-0.35412 4.46439,-0.65737 l 0.39625,-0.20491 -0.0861,-2.06628 c -0.0476,-1.13647 -0.23669,-3.70062 -0.42062,-5.69815 -0.1839,-1.99753 -0.37178,-4.42913 -0.41748,-5.40357 -0.0779,-1.66287 -0.10405,-1.79492 -0.42491,-2.14972 -0.44806,-0.49552 -1.3032,-0.63313 -3.94064,-0.63413 -1.10773,-3.7e-4 -2.01406,-0.0204 -2.01406,-0.0445 0,-0.0242 -0.20798,-1.0741 -0.46222,-2.33353 -0.25424,-1.25944 -0.46223,-2.33924 -0.46223,-2.39959 0,-0.0604 1.38791,-0.10969 3.08422,-0.10969 l 3.08425,0 0.15136,-1.48576 c 0.44354,-4.35437 2.36558,-7.92773 4.97192,-9.24371 1.67722,-0.84683 4.48766,-1.42075 6.95736,-1.42075 0.75719,0 2.65129,0.11496 4.20924,0.25546 1.55791,0.1405 3.59029,0.29506 4.51644,0.34347 1.18712,0.0621 1.68386,0.13545 1.68386,0.24883 0,0.34101 -0.44311,1.62961 -0.81115,2.35878 -0.77122,1.52817 -1.79677,2.311 -3.41096,2.60369 -0.98008,0.17773 -1.70658,0.0987 -3.12929,-0.34024 -0.91228,-0.28149 -1.28526,-0.31923 -3.14799,-0.31858 -2.70765,6.9e-4 -3.39643,0.11605 -4.35178,0.72717 -1.06182,0.67923 -1.15009,0.94659 -1.17491,3.55756 l -0.0202,2.11928 1.05655,0.28656 c 1.35497,0.36751 2.54533,0.37734 6.36785,0.0525 1.65493,-0.14058 3.61811,-0.29392 4.36265,-0.34075 l 1.35368,-0.0851 0,2.65193 0,2.65194 -3.30169,0 -3.30166,0 0,-0.437 c 0,-0.56356 -0.25958,-0.92783 -0.57492,-0.80682 -0.27986,0.10739 -0.48165,0.57677 -0.48165,1.12034 0,0.37708 -0.0179,0.38761 -0.66032,0.38761 -0.3632,0 -0.66035,-0.0517 -0.66035,-0.11479 0,-0.0632 0.27802,-0.60552 0.61784,-1.20529 0.45367,-0.80075 0.63286,-1.27168 0.67439,-1.77238 0.0643,-0.77559 -0.0489,-0.93282 -0.76396,-1.0606 l -0.46222,-0.0826 -0.79243,1.55657 c -0.94079,1.84805 -2.0004,3.0423 -2.94528,3.31952 l -0.56806,0.16667 0.0885,4.11978 c 0.0487,2.26588 0.12601,5.75411 0.17185,7.75163 l 0.0834,3.63186 1.15465,0.18272 1.15466,0.18272 1.38403,-1.33305 c 0.76122,-0.73318 1.54908,-1.41819 1.75083,-1.52223 0.29907,-0.15426 1.12258,-0.18371 4.46089,-0.1595 3.76103,0.0274 4.18543,0.0538 5.21668,0.32524 1.81143,0.47691 6.20209,1.38269 6.28765,1.29713 0.0169,-0.0169 -0.0934,-0.50592 -0.24504,-1.0867 -0.24953,-0.95557 -0.2768,-1.44517 -0.28672,-5.15005 -0.006,-2.25175 0.0389,-5.46747 0.0998,-7.14605 0.10509,-2.89672 0.0984,-3.05683 -0.13206,-3.14789 -0.13354,-0.0527 -1.31257,-0.14707 -2.62002,-0.20955 -1.30748,-0.0624 -2.38109,-0.11683 -2.38579,-0.12078 -0.0502,-0.042 0.64819,-5.11457 0.71311,-5.17893 0.0483,-0.0479 0.87994,-0.18252 1.84804,-0.29908 1.69464,-0.20401 2.4888,-0.44144 2.59647,-0.77624 0.0279,-0.087 0.11198,-0.99021 0.18666,-2.00714 0.27201,-3.70337 0.80199,-4.35134 3.69809,-4.52147 l 1.24181,-0.0729 -0.0923,0.91051 c -0.11598,1.14485 -0.38326,2.18794 -0.88278,3.44542 -0.39044,0.9829 -0.39054,0.98379 -0.13629,1.33741 0.65826,0.91555 1.36996,1.34714 2.69598,1.63489 0.4267,0.0926 3.18305,0.17818 7.28953,0.22633 l 6.60337,0.0775 -0.036,0.92447 c -0.0506,1.29947 -0.27579,2.47521 -0.56524,2.95118 -0.13576,0.22323 -0.50175,0.53977 -0.81331,0.7034 -0.61114,0.32099 -0.5685,0.31857 -10.29196,0.58455 l -3.1221,0.0855 -0.0785,1.20546 c -0.0431,0.66299 -0.1108,2.51292 -0.15039,4.11093 -0.0803,3.24179 -0.16094,4.2922 -0.32936,4.2922 -0.0626,0 -0.27758,0.0622 -0.47754,0.13823 l -0.36356,0.13823 0.41382,0.25167 c 0.65211,0.39657 0.82727,0.78328 0.91449,2.01891 0.067,0.9497 0.0476,1.13146 -0.12505,1.17058 -0.17288,0.0392 -0.12485,0.31031 0.31148,1.75867 0.28375,0.9418 0.51589,1.81195 0.51589,1.93367 0,0.27087 0.21977,0.32731 1.98101,0.50869 1.8533,0.19086 3.34149,0.53789 3.14582,0.73355 -0.0943,0.0944 -3.9484,0.58236 -6.34847,0.80391 l -2.47625,0.22859 0,2.47001 0,2.46998 1.88196,-0.4333 c 1.03507,-0.2384 2.00081,-0.4534 2.14609,-0.4779 0.23696,-0.04 0.29433,0.105 0.55766,1.4082 0.4527,2.2408 0.56726,4.1879 0.69163,11.754 0.0806,4.9008 0.16483,7.1758 0.28103,7.5871 0.10595,0.3751 0.37128,0.7928 0.73411,1.1557 l 0.56816,0.5681 -0.12589,0.6638 c -0.23231,1.2251 -0.46841,1.4113 -1.12957,0.8913 -0.30978,-0.2437 -0.35831,-0.2542 -0.28448,-0.062 0.18136,0.4726 0.46813,1.7644 0.54806,2.4686 0.0682,0.6009 0.0303,0.8291 -0.2188,1.3208 l -0.30123,0.5942 -2.34421,0.036 -2.3442,0.036 0,2.11 0,2.1101 2.80645,0 c 3.69479,-0.01 5.88287,-0.1682 6.99408,-0.5168 0.48722,-0.1528 0.91923,-0.3319 0.96,-0.3978 0.0408,-0.066 -0.10339,-0.3999 -0.32036,-0.742 -0.92872,-1.4645 -1.06555,-3.0638 -0.55833,-6.5268 0.15428,-1.0531 0.29694,-2.1823 0.31699,-2.5092 0.0338,-0.549 0.0854,-0.6269 0.67874,-1.0236 1.46909,-0.9817 2.45832,-0.4399 4.64187,2.5424 0.67362,0.92 1.55964,1.7991 2.08183,2.0655 0.27771,0.1417 0.54257,0.3589 0.58858,0.4827 0.0461,0.1239 0.28084,0.5141 0.52185,0.8674 0.24098,0.3531 0.43817,0.7231 0.43817,0.8223 0,0.2647 -0.58329,0.6038 -0.85765,0.4985 -0.21829,-0.084 -0.23028,0.014 -0.17298,1.4041 0.0719,1.7438 0.17202,1.8982 1.32698,2.0447 1.02294,0.1298 1.15839,0.1891 1.30335,0.5704 0.12734,0.3349 0.15273,0.3097 0.74477,-0.74 0.72624,-1.2877 0.89373,-1.2593 1.10855,0.188 l 0.13579,0.9149 0.946,0.2263 c 0.52029,0.1244 1.19351,0.2974 1.49603,0.3845 0.68443,0.1969 1.51205,-0.015 1.96359,-0.5017 0.28418,-0.3067 0.30851,-0.3116 0.38296,-0.077 0.0438,0.1377 0.21698,0.3796 0.38506,0.5375 0.37395,0.3513 1.96885,0.5785 3.65192,0.5201 l 1.12256,-0.039 0.0436,-0.3963 c 0.0241,-0.2178 0.16464,-0.5262 0.31255,-0.6851 l 0.26901,-0.2891 -0.41121,-1.1364 c -0.22617,-0.625 -0.50088,-1.3098 -0.61047,-1.5218 -0.28319,-0.5477 -1.22565,-1.0584 -2.12399,-1.1511 l -0.75003,-0.077 0.36661,0.6256 0.36663,0.6256 -0.35025,0.3502 c -0.41562,0.4157 -0.24629,0.4929 -2.51856,-1.1486 -1.94316,-1.4037 -3.21319,-2.5774 -3.85128,-3.5592 -0.26774,-0.4119 -1.59861,-1.8781 -2.95751,-3.2583 -2.52111,-2.5605 -3.1711,-3.3568 -3.49925,-4.2869 -0.18119,-0.5135 -0.17722,-0.5317 0.17043,-0.7759 0.75717,-0.5321 4.97378,-3.0865 5.68352,-3.4431 1.75694,-0.8828 3.81555,-1.4237 6.00552,-1.5779 l 1.21333,-0.086 0.0356,-2.8064 c 0.0279,-2.1985 -0.002,-2.8068 -0.13207,-2.8083 -0.0923,-9e-4 -3.52553,-0.1491 -7.62954,-0.3289 -4.10399,-0.1798 -7.59554,-0.3275 -7.75896,-0.3282 -0.2922,0 -0.29712,0.026 -0.29454,1.6165 0.003,1.8558 0.1726,3.2419 0.46613,3.8095 0.18355,0.355 0.41594,0.5053 1.33766,0.8655 0.25835,0.1009 0.0942,0.2739 -1.6109,1.6972 -1.93864,1.6183 -3.17683,2.3905 -4.05848,2.531 l -0.49527,0.079 0,-9.2113 0,-9.21129 0.43892,-0.61199 c 0.2414,-0.3366 0.60162,-0.95219 0.80046,-1.368 0.40801,-0.85312 1.2268,-1.6317 1.84671,-1.75605 0.9128,-0.18309 0.92207,-0.18963 0.66702,-0.47144 -0.12552,-0.1387 -0.38738,-0.25216 -0.58193,-0.25216 -0.19454,0 -0.39435,-0.0406 -0.44401,-0.0903 -0.11302,-0.11301 6.77813,-2.5807 6.98504,-2.50131 0.47268,0.18139 0.93543,2.26557 0.92475,4.16498 l -0.006,0.9791 -0.95713,0.29313 c -1.22276,0.3745 -1.49701,0.56097 -1.87611,1.27555 -0.24041,0.45316 -0.28885,0.69135 -0.21779,1.07032 0.0783,0.41754 0.14268,0.48806 0.44866,0.49184 0.19647,0.003 1.18923,0.17227 2.20617,0.37743 1.95263,0.39389 2.2436,0.37509 2.70015,-0.17503 0.14484,-0.17456 0.57615,-0.20754 2.76378,-0.2115 1.99817,-0.004 2.66784,-0.0479 2.92233,-0.19343 0.18161,-0.1038 0.64428,-0.19083 1.02819,-0.19341 0.39543,-0.003 0.83116,-0.092 1.00522,-0.20598 0.25141,-0.16475 0.72428,-0.19473 2.60367,-0.16508 l 2.29653,0.0362 0.0205,1.38672 c 0.0114,0.7627 0.0262,1.461 0.033,1.5518 0.009,0.1213 0.39771,0.1651 1.46522,0.1651 l 1.45273,0 0,0.9331 c 0,0.5133 -0.0744,1.063 -0.16508,1.2217 -0.0908,0.1586 -0.19906,0.9719 -0.24057,1.8072 -0.0414,0.8353 -0.14062,1.6971 -0.22024,1.915 -0.50796,1.3905 -0.56401,1.7555 -0.56337,3.6691 0,1.4353 0.0531,2.0778 0.19877,2.4264 0.10894,0.2607 0.19809,0.8526 0.19809,1.3154 l 0,0.8413 -1.25465,1.2466 c -0.69005,0.6855 -1.25464,1.2958 -1.25464,1.3563 0,0.061 0.87661,0.9822 1.948,2.0483 1.80467,1.7959 2.0396,1.9828 3.19305,2.5407 0.68477,0.3311 1.31841,0.6021 1.40804,0.6021 0.0896,0 0.14308,0.104 0.11874,0.2311 -0.0243,0.1271 -0.0487,0.3002 -0.0543,0.3848 -0.0171,0.2601 -1.53635,2.2272 -2.51984,3.2625 l -0.93264,0.9818 -0.0132,1.1759 c -0.0111,0.9858 0.0562,1.3933 0.41578,2.5208 0.23596,0.7397 0.47484,1.3166 0.53083,1.2819 0.20491,-0.1265 0.22382,0.4375 0.0292,0.8729 -0.11009,0.2464 -0.18701,0.5833 -0.17095,0.7486 0.0218,0.2242 -0.0659,0.3337 -0.34542,0.4312 -0.41535,0.1447 -1.21708,1.0476 -0.93846,1.0568 0.0938,0 1.06216,0.01 2.15172,0.012 1.08956,0 2.08502,0.034 2.21213,0.069 0.20358,0.056 0.23112,0.2496 0.23112,1.6299 0,1.468 -0.0173,1.5725 -0.27297,1.6536 -0.62159,0.1973 -2.79548,1.547 -3.29285,2.0443 -0.0364,0.036 -0.39145,0.3335 -0.78918,0.6604 l -0.72313,0.5942 -4.9065,0.022 -4.90652,0.022 -1.30389,0.4011 c -0.75892,0.2335 -1.58022,0.3976 -1.96504,0.3927 -0.36361,0 -0.87189,0.079 -1.1295,0.1872 -0.3596,0.1502 -1.0714,0.196 -3.06448,0.1966 -1.42786,5e-4 -2.61334,-0.016 -2.63442,-0.035 z m -247.591996,-9.4425 c 0.87622,-0.447 1.31054,-1.7457 1.31282,-3.9255 l 8.4e-4,-0.9574 -0.49526,0 c -1.06222,-0.01 -4.337496,-0.2456 -4.556323,-0.3308 -0.216107,-0.084 -0.231121,-0.548 -0.231121,-7.1348 0,-8.9714 -0.169911,-10.5042 -1.389968,-12.5392 -0.529599,-0.8832 -1.473452,-1.9149 -1.751991,-1.9149 -0.09982,0 -0.607471,-0.1881 -1.128103,-0.4181 -0.520625,-0.2299 -1.182568,-0.423 -1.470963,-0.4292 -0.467671,-0.01 -0.546888,0.036 -0.732852,0.4248 -0.206989,0.4327 -0.210255,0.434 -0.448721,0.1705 -0.132097,-0.146 -0.279135,-0.4558 -0.326722,-0.6885 -0.0752,-0.3677 -0.181158,-0.4572 -0.809842,-0.6842 -1.020488,-0.3685 -2.8645,-0.3562 -4.355192,0.029 -1.38703,0.3585 -3.536118,1.3725 -4.447603,2.0983 l -0.683692,0.5446 -0.386128,-0.4398 c -0.227188,-0.2588 -0.422086,-0.6646 -0.473463,-0.9859 -0.04806,-0.3004 -0.160924,-0.5463 -0.250854,-0.5463 -0.36716,-3e-4 -8.006954,0.5324 -8.64887,0.6031 l -0.693348,0.076 0,1.4647 c 0,1.3174 0.03258,1.5203 0.324759,2.0187 0.41746,0.7124 0.751659,0.9223 2.01251,1.2644 0.566744,0.1539 1.306982,0.397 1.644972,0.5406 l 0.61452,0.2609 -0.05774,2.0693 c -0.03177,1.1381 -0.112594,4.8388 -0.179702,8.2238 l -0.121997,6.1543 -0.764989,0.7865 c -0.43195,0.4442 -1.133335,1.4158 -1.611106,2.232 -0.465362,0.7949 -0.995707,1.648 -1.178521,1.8958 l -0.332398,0.4505 1.508693,-0.089 c 2.909435,-0.171 11.15526,-0.7496 11.710908,-0.8216 l 0.561278,-0.072 0,-2.2913 0,-2.2912 -1.089549,-0.084 c -0.599271,-0.047 -1.624437,-0.126 -2.278171,-0.1769 l -1.188605,-0.093 -0.03421,-6.4062 -0.03421,-6.4062 0.496487,-0.8465 c 0.954628,-1.6276 2.527777,-2.904 4.317506,-3.5031 0.884625,-0.2962 2.928875,-0.5582 5.17403,-0.663 l 1.86339,-0.087 0.555622,0.6312 c 0.663518,0.7539 1.356803,2.1651 1.644483,3.3476 0.437923,1.7999 0.512994,2.8884 0.409884,5.9429 -0.05512,1.6344 -0.136604,4.1007 -0.180986,5.4809 l -0.08073,2.5093 -1.386695,0.078 c -1.573258,0.088 -2.331043,0.2645 -3.132134,0.7282 -0.999952,0.5789 -1.55999,1.6558 -1.712948,3.2939 l -0.07575,0.8112 1.76706,0.092 c 0.971878,0.051 3.133961,0.2383 4.804608,0.4169 6.13832,0.6564 7.039109,0.6777 7.996947,0.1891 z m 109.807266,-0.011 c 1.96121,-0.1558 3.58125,-0.2962 3.60009,-0.3119 0.0384,-0.032 -0.61399,-4.5917 -0.66325,-4.636 -0.0172,-0.016 -0.78159,-0.09 -1.69856,-0.1656 -2.22567,-0.1837 -2.51474,-0.3134 -2.89359,-1.2979 -0.51383,-1.3355 -0.4248,-2.1086 0.7082,-6.1515 0.25917,-0.9248 0.51169,-2.0391 0.56115,-2.4762 l 0.0898,-0.7949 -0.51891,0 c -0.8668,0 -1.06869,-0.4337 -0.52066,-1.1187 0.28243,-0.3529 0.33863,-0.3735 0.56063,-0.2052 0.1357,0.1029 0.0276,-0.023 -0.24029,-0.2783 -0.84202,-0.8045 -0.83356,-1.5485 0.0323,-2.8255 1.20178,-1.7729 1.43591,-2.1582 1.52368,-2.508 l 0.0919,-0.366 1.50651,0.086 c 1.84788,0.1055 2.60084,0.2646 3.23952,0.6845 0.93272,0.6133 0.85552,-0.098 1.22387,11.282 0.18431,5.694 0.35216,10.37 0.37302,10.3909 0.0208,0.021 1.43142,0.098 3.1346,0.1725 1.7032,0.074 3.45985,0.1621 3.90367,0.1955 l 0.80695,0.06 0.0768,-1.7432 c 0.0676,-1.5353 0.17792,-2.2176 0.54333,-3.361 0.0936,-0.2927 0.0776,-0.2972 -1.06952,-0.3 -0.84293,0 -1.31188,-0.07 -1.69822,-0.2454 -0.95474,-0.4337 -1.55549,-1.465 -1.08409,-1.8611 0.0908,-0.076 0.32344,-0.2572 0.51699,-0.4021 0.22047,-0.165 0.48755,-0.6208 0.71505,-1.2201 0.19971,-0.5263 0.44247,-1.0801 0.53949,-1.2308 0.16852,-0.2617 0.13271,-0.2876 -0.80327,-0.5811 -0.96907,-0.304 -0.9781,-0.311 -0.83624,-0.6506 0.0841,-0.2012 0.17523,-1.8459 0.2203,-3.9752 l 0.077,-3.6318 0.3906,-0.7052 c 0.78172,-1.4112 2.65777,-2.7042 4.16573,-2.8711 0.66168,-0.073 0.77437,-0.045 1.26532,0.3129 0.58678,0.4281 0.90547,0.9835 1.12929,1.968 0.0942,0.4145 0.16629,4.0864 0.20751,10.5731 l 0.0632,9.9381 4.76144,0 4.76143,0 -0.10206,-0.9575 c -0.0562,-0.5266 -0.13897,-1.4292 -0.18406,-2.0059 l -0.082,-1.0484 -0.61027,-0.1552 c -2.47214,-0.6285 -3.17451,-2.5083 -2.89716,-7.7537 0.0701,-1.3247 0.16501,-3.3892 0.21103,-4.5877 0.2396,-6.2423 -1.06077,-9.1821 -4.70752,-10.6424 -0.46451,-0.186 -1.10579,-0.4623 -1.42507,-0.6139 -0.8014,-0.3807 -2.22371,-0.4572 -3.31816,-0.1787 -0.47069,0.1198 -2.01719,0.7805 -3.43665,1.4682 -1.41948,0.6877 -2.69188,1.2503 -2.82755,1.2503 -0.13567,0 -1.05436,-0.5255 -2.0415,-1.1678 -1.89097,-1.2304 -2.65313,-1.5658 -3.84187,-1.6907 -1.02249,-0.1075 -1.66789,0.1104 -2.57807,0.8703 -1.45829,1.2176 -1.91287,1.296 -2.37151,0.4091 l -0.20785,-0.4019 -4.74324,0 c -2.71129,0 -4.77509,0.051 -4.8176,0.1203 -0.17704,0.2865 -0.73363,4.1135 -0.73363,5.0444 0,0.065 1.13116,0.118 2.52973,0.118 l 2.52974,0 0.49707,0.5225 c 0.83184,0.8745 0.89161,1.483 0.39606,4.0338 -0.22577,1.1622 -0.46983,2.8263 -0.54237,3.698 -0.0726,0.8716 -0.18756,2.0008 -0.25558,2.5092 -0.068,0.5085 -0.19032,1.662 -0.27173,2.5634 -0.19284,2.1357 -0.53614,3.0811 -1.31348,3.6169 -0.4379,0.3017 -0.96235,0.2852 -1.94982,-0.062 -0.453,-0.1591 -0.8484,-0.2637 -0.8787,-0.2325 -0.0301,0.031 -0.19727,1.1266 -0.37114,2.434 -0.30331,2.2809 -0.30637,2.3791 -0.0747,2.4201 0.1328,0.023 1.82935,0.1126 3.77013,0.198 l 3.52867,0.1554 0.0413,0.3582 c 0.0354,0.3083 0.0908,0.3501 0.3962,0.2997 0.1952,-0.032 1.95952,-0.186 3.92071,-0.3418 z m -158.745148,-0.8496 6.999582,-0.4606 3.697892,0.3882 c 2.033832,0.2135 4.173336,0.427 4.754425,0.4745 0.581106,0.048 1.160548,0.1154 1.287658,0.1508 0.213767,0.06 0.231125,-0.1092 0.231125,-2.2496 l 0,-2.3141 -0.429225,-0.067 c -0.236067,-0.037 -2.509278,-0.1945 -5.051581,-0.3496 -2.542302,-0.155 -4.66451,-0.3209 -4.716006,-0.3687 -0.08354,-0.077 0.0343,-10.5189 0.215902,-19.1352 l 0.06752,-3.2026 -7.127479,0 -7.12747,0 0,2.6413 0,2.6414 0.429208,0.01 c 0.950935,0.015 7.355092,0.6021 7.435168,0.6821 0.07213,0.072 0.70515,13.3058 0.716372,14.9748 l 0.0036,0.5417 -0.924255,0.426 c -1.383039,0.6376 -2.969899,0.9106 -6.273408,1.0798 -1.598036,0.082 -2.930548,0.1719 -2.961147,0.2001 -0.124902,0.1152 0.24279,3.5982 0.426194,4.0371 0.190525,0.456 0.219441,0.4717 0.772138,0.4191 0.315799,-0.03 3.724002,-0.262 7.573773,-0.5154 z m 261.493668,0 6.99958,-0.4606 3.6979,0.3882 c 2.03383,0.2135 4.17333,0.427 4.75441,0.4745 0.5811,0.048 1.16057,0.1154 1.28767,0.1508 0.21378,0.06 0.23112,-0.1092 0.23112,-2.2496 l 0,-2.3141 -0.42921,-0.067 c -0.23607,-0.037 -2.5093,-0.1945 -5.05159,-0.3496 -2.54231,-0.155 -4.66451,-0.3209 -4.71601,-0.3687 -0.0835,-0.077 0.0343,-10.5189 0.21591,-19.1352 l 0.0675,-3.2026 -7.12747,0 -7.12749,0 0,2.6413 0,2.6414 0.42925,0.01 c 0.95095,0.015 7.35507,0.6021 7.43517,0.6821 0.0721,0.072 0.70512,13.3058 0.71635,14.9748 l 0.004,0.5417 -0.92425,0.426 c -1.38303,0.6376 -2.96989,0.9106 -6.27342,1.0798 -1.59802,0.082 -2.93052,0.1719 -2.96113,0.2001 -0.1249,0.1152 0.24279,3.5982 0.42618,4.0371 0.19054,0.456 0.21945,0.4717 0.77215,0.4191 0.31581,-0.03 3.72402,-0.262 7.57378,-0.5154 z m -165.22429,-0.094 c 0.12234,-0.5752 0.62749,-4.608 0.58208,-4.6471 -0.0253,-0.022 -1.35344,-0.3254 -2.95146,-0.6747 -3.21796,-0.7032 -3.41266,-0.7902 -4.68838,-2.0918 -0.93508,-0.954 -1.63515,-2.1168 -2.0749,-3.4463 -0.31173,-0.9424 -0.3514,-1.2706 -0.35939,-2.9742 -0.0121,-2.5913 0.2079,-3.3036 1.52981,-4.9526 2.67629,-3.3384 4.76583,-4.7413 7.75179,-5.2046 3.23784,-0.5024 5.58935,0.3267 8.20739,2.8934 1.43127,1.4032 1.80567,1.8689 2.30711,2.8693 0.57191,1.1411 0.74605,1.8757 0.82247,3.47 0.0594,1.2389 0.02,1.7864 -0.21441,2.9714 -0.38576,1.9513 -0.57678,2.4917 -1.14365,3.235 -0.77004,1.0098 -1.63454,1.5746 -3.44045,2.2479 -1.50676,0.5619 -1.6143,0.6239 -1.31675,0.7595 0.17822,0.081 0.76559,0.7305 1.30526,1.4429 1.03509,1.3665 1.86185,2.1996 2.33029,2.3483 0.64184,0.2037 3.6947,-1.6978 4.87005,-3.0334 0.44747,-0.5085 0.55102,-0.7149 0.49308,-0.9825 -0.0581,-0.2684 0.0612,-0.5031 0.57523,-1.1311 1.21163,-1.4804 1.86507,-4.0232 1.86507,-7.2578 0,-2.9735 -0.5948,-5.6368 -1.78817,-8.0065 -0.8744,-1.7363 -1.04587,-1.9186 -3.09429,-3.2884 -1.89623,-1.268 -1.93546,-1.2866 -3.3057,-1.5634 -0.7627,-0.1541 -2.24847,-0.5535 -3.30169,-0.8875 -2.88775,-0.9157 -3.99663,-1.155 -5.34874,-1.154 -1.41002,9e-4 -2.36115,0.3096 -3.34052,1.0838 -0.49716,0.3929 -0.79505,0.5203 -1.39136,0.5948 -0.47479,0.059 -1.16327,0.2972 -1.8395,0.6357 -0.89755,0.4493 -1.28287,0.7539 -2.27325,1.7973 -1.98591,2.0923 -3.01576,3.1167 -3.54935,3.5306 -0.50282,0.3901 -0.50645,0.3996 -0.36195,0.9362 0.15325,0.569 0.72886,1.1835 1.62924,1.7392 0.76116,0.4697 0.64323,0.62 -0.59431,0.7574 l -1.08957,0.1209 0.0426,0.5263 c 0.0234,0.2895 0.0965,0.5913 0.16239,0.6707 0.0768,0.093 -0.12506,0.5679 -0.5613,1.3226 -1.32737,2.2966 -1.52098,3.1622 -1.08655,4.8572 0.26084,1.0177 1.17905,2.9784 1.87205,3.9972 1.19213,1.7529 3.20793,3.5837 5.05164,4.5883 0.86377,0.4705 2.51165,1.1406 2.80529,1.1406 0.0869,0 -0.18664,-0.3483 -0.60782,-0.7739 l -0.76576,-0.7739 0.50576,-0.077 c 0.27818,-0.043 0.87719,-0.1182 1.33118,-0.1677 l 0.82544,-0.09 0,0.5037 c 0,0.6272 0.43635,1.5529 0.86406,1.8332 0.41418,0.2714 1.56987,0.5828 2.20399,0.594 0.40773,0.01 0.50364,-0.043 0.55597,-0.2885 z m 2.80486,0.099 c 0.36623,-0.1087 1.25363,-0.4775 1.97197,-0.8193 l 1.3061,-0.6216 -0.56331,-0.099 c -0.30982,-0.054 -0.62182,-0.1348 -0.69335,-0.1789 -0.16318,-0.1009 -0.16818,-0.5391 -0.01,-0.8356 0.0992,-0.1854 -0.0525,-0.3384 -0.85844,-0.8658 -0.53841,-0.3524 -0.97895,-0.6839 -0.97895,-0.7367 0,-0.053 0.17472,-0.3564 0.38828,-0.6744 0.21352,-0.3179 0.37214,-0.5942 0.35245,-0.6139 -0.0403,-0.04 -1.94347,0.5942 -2.02415,0.6748 -0.0286,0.028 0.24383,0.7127 0.60535,1.5203 0.6154,1.3747 0.64169,1.4767 0.41224,1.5994 -0.13479,0.072 -0.42727,0.1312 -0.64995,0.1312 l -0.40488,0 0,0.8584 c 0,0.9827 0.0211,0.9949 1.1462,0.6607 z m 107.64415,-0.1632 c 0.30855,-0.1621 1.24377,-0.8077 2.07828,-1.4345 0.87289,-0.6557 1.59669,-1.1092 1.70427,-1.0679 0.15315,0.059 0.41932,0.6424 0.79973,1.7536 0.0328,0.096 1.04996,0.1744 3,0.232 1.6227,0.048 3.99446,0.1248 5.2705,0.1707 l 2.32013,0.083 0.32716,-2.3112 0.32714,-2.3111 -1.85486,-0.072 c -1.28913,-0.05 -2.0764,-0.1462 -2.58124,-0.3156 l -0.72638,-0.2436 -0.0349,-4.3252 -0.0349,-4.3252 -0.36137,0 c -0.54979,0 -0.95568,-0.1422 -0.95568,-0.3284 0,-0.1876 0.40682,-0.3256 0.96798,-0.3284 0.33608,-8e-4 0.36671,-0.038 0.30454,-0.3649 -0.038,-0.1998 -0.10664,-1.3141 -0.15252,-2.4763 -0.10678,-2.7062 -0.27069,-4.3415 -0.54444,-5.4313 -0.18965,-0.7551 -0.28883,-0.9199 -0.76002,-1.2641 -0.86338,-0.6305 -2.94337,-1.6244 -4.30582,-2.0575 -4.22117,-1.3418 -9.94225,-1.2435 -14.52744,0.2496 -1.30424,0.4247 -4.09433,1.714 -4.33396,2.0028 -0.0999,0.1204 0.13341,0.742 0.85465,2.2765 0.54568,1.161 1.04521,2.2448 1.11004,2.4085 l 0.11786,0.2974 0.6965,-0.4382 c 0.81008,-0.5098 1.58069,-0.8405 3.13971,-1.3476 1.17731,-0.383 2.64386,-1.078 3.1201,-1.4786 0.15434,-0.1299 0.38392,-0.3993 0.51012,-0.5987 l 0.2295,-0.3628 0.4534,0.5938 c 0.24938,0.3266 0.50364,0.5939 0.565,0.5939 0.0613,0 0.37068,-0.1176 0.68731,-0.2612 0.68212,-0.3096 1.70194,-0.3398 2.79386,-0.083 0.99685,0.2345 4.97291,1.6999 4.97664,1.8342 8.5e-4,0.057 -0.20106,0.2239 -0.45034,0.3709 l -0.45325,0.2674 0.37015,0.825 c 0.20359,0.4537 0.41155,0.9554 0.46215,1.1149 l 0.092,0.2898 -4.95044,0 c -3.41753,0 -4.9651,-0.044 -4.99783,-0.1421 -0.0261,-0.078 -0.24412,0.1317 -0.4846,0.4666 -0.59319,0.826 -0.96783,1.0653 -1.32183,0.8442 -0.21605,-0.1349 -0.45864,-0.136 -1.23262,-0.01 -1.60671,0.271 -2.78047,0.9378 -5.62539,3.1959 l -2.54869,2.0229 0.0786,1.2662 c 0.30249,4.8684 0.69093,5.974 2.57547,7.3312 3.13416,2.2572 6.66009,3.2624 11.22572,3.2004 1.2909,-0.018 1.60296,-0.064 2.07978,-0.3155 z m -5.72086,-4.8528 c -0.15036,-0.1109 -0.97185,-0.3805 -1.82558,-0.5992 -1.82587,-0.4676 -2.14459,-0.6157 -2.711,-1.2609 -0.38088,-0.4338 -0.41544,-0.5398 -0.33366,-1.0238 0.22519,-1.333 1.15358,-2.5901 2.61506,-3.5409 1.43697,-0.9349 1.93638,-1.0538 5.23592,-1.2468 3.67773,-0.215 4.32023,-0.4084 4.81405,-1.4491 0.12332,-0.2599 0.29408,-0.4497 0.37946,-0.4219 0.0854,0.028 0.46805,0.4622 0.85038,0.9652 1.22684,1.6141 1.51578,1.9312 1.9107,2.0973 l 0.38714,0.1628 -2.04266,1.9463 c -1.12346,1.0705 -2.36147,2.1859 -2.75115,2.4788 -1.52828,1.1485 -3.53326,1.9317 -5.19876,2.031 -0.81538,0.049 -1.11893,0.017 -1.3299,-0.1388 z m -2.30196,-10.3482 c 0,-0.1759 0.0825,-0.2861 0.21426,-0.2861 0.18341,0 0.18881,0.033 0.0374,0.231 -0.0973,0.1272 -0.19371,0.2559 -0.21426,0.2862 -0.0205,0.03 -0.0374,-0.074 -0.0374,-0.2311 z m -60.48692,12.5987 0,-2.6991 -0.42923,0.058 c -0.23608,0.031 -2.09327,0.1763 -4.1271,0.3217 -2.03384,0.1455 -3.92668,0.2894 -4.20632,0.3199 l -0.50843,0.056 -0.36478,-0.8146 c -0.7419,-1.657 -1.04217,-3.595 -1.14926,-7.4181 l -0.0777,-2.7733 0.6014,-0.8129 c 1.85936,-2.513 4.97552,-5.0838 7.81817,-6.4498 2.14598,-1.0312 2.00324,-1.0239 3.15002,-0.1608 1.06838,0.8042 1.58315,1.3887 1.81912,2.0656 0.13032,0.3738 0.19465,0.4191 0.4958,0.3492 0.19032,-0.044 0.97005,-0.1173 1.73274,-0.1624 1.04943,-0.062 1.47317,-0.1427 1.74209,-0.3314 0.68634,-0.4816 0.602,-0.9262 -0.40358,-2.1278 -0.2903,-0.3468 -0.59749,-0.8419 -0.6827,-1.1 -0.14076,-0.4265 -0.12333,-0.5135 0.19123,-0.9541 l 0.34612,-0.4849 -0.43151,-0.3594 c -2.76892,-2.3068 -9.44851,-2.5988 -12.84584,-0.5615 -1.09868,0.6589 -1.67298,1.2554 -2.37951,2.4713 -0.63387,1.0909 -1.06671,1.4211 -1.86295,1.4211 -0.48444,0 -1.23832,-0.5937 -1.23832,-0.9753 0,-0.1658 0.24683,-0.6531 0.54852,-1.0828 0.67704,-0.9644 1.02955,-1.7203 1.03337,-2.2158 l 0.003,-0.3779 -2.41022,0.082 c -1.32564,0.045 -4.00001,0.1178 -5.94304,0.1609 l -3.53283,0.078 0.004,1.0755 c 0.005,1.6621 0.21193,2.279 0.84099,2.5054 0.0867,0.031 0.0207,0.1894 -0.16169,0.3881 l -0.30806,0.3353 0.37406,0.078 c 0.20577,0.043 1.05756,0.1714 1.89289,0.285 0.83533,0.1135 1.91994,0.2967 2.41022,0.4072 l 0.89146,0.2008 0,8.2436 0,8.2437 -3.30168,0 -3.30169,0 0,2.5284 0,2.5283 2.93851,-0.068 c 3.03333,-0.07 3.57378,-0.1616 4.10302,-0.6908 0.29292,-0.2929 0.56354,-0.098 0.69146,0.4991 0.0496,0.2311 0.1163,0.4647 0.14836,0.5192 0.032,0.055 3.6206,0.099 7.97455,0.099 l 7.91626,0 0,-2.6991 z m 3.24024,-22.5394 c -0.25673,-0.2255 -0.46683,-0.4538 -0.46683,-0.5074 0,-0.085 0.87302,-0.4035 1.1049,-0.4035 0.0461,0 0.0837,0.2972 0.0837,0.6604 0,0.3632 -0.0574,0.6604 -0.12745,0.6604 -0.0701,0 -0.33756,-0.1845 -0.59433,-0.4099 z m 98.8635,24.9012 c 1.4209,-0.2271 2.86287,-0.6007 4.00966,-1.0388 0.43739,-0.1671 1.26544,-0.3659 1.8401,-0.4418 0.57465,-0.076 2.0444,-0.4556 3.26607,-0.8439 l 2.22124,-0.7059 0.003,-0.8619 c 0.006,-1.8936 -0.43855,-3.99 -0.90682,-4.2795 -0.18708,-0.1156 -7.02782,2.3058 -6.9356,2.455 0.0377,0.061 0.20711,0.1111 0.37635,0.1111 0.16927,0 0.44782,0.1134 0.61902,0.252 l 0.31128,0.2521 -0.52776,0.096 c -1.19457,0.2173 -1.79962,0.7415 -2.50876,2.1734 -0.51659,1.0432 -0.93368,1.5504 -1.52118,1.8502 -0.28348,0.1446 -0.5772,0.2629 -0.65275,0.2629 -0.087,0 -0.1373,-0.5578 -0.1373,-1.5261 l 0,-1.5261 -0.70431,-0.3224 c -0.50799,-0.2326 -1.21427,-0.3813 -2.53379,-0.5336 -2.12648,-0.2454 -2.4408,-0.3382 -2.4408,-0.7203 0,-0.1523 -0.22023,-0.9896 -0.48938,-1.8607 -0.39609,-1.282 -0.45532,-1.6049 -0.31073,-1.6943 0.13689,-0.085 0.16225,-0.3731 0.10848,-1.235 -0.0746,-1.1952 -0.22446,-1.544 -0.83595,-1.9451 -0.34632,-0.2272 -0.34797,-0.2349 -0.082,-0.3772 0.14936,-0.08 0.35559,-0.1453 0.45835,-0.1453 0.15203,0 0.20316,-0.4983 0.27453,-2.6743 0.0482,-1.471 0.12527,-3.6329 0.17121,-4.8045 l 0.0835,-2.13 3.18344,-0.087 c 8.9273,-0.245 9.64455,-0.28 10.12314,-0.4929 1.01844,-0.4531 1.37271,-1.2759 1.53523,-3.5657 l 0.083,-1.1689 -5.74179,0 c -8.56621,0 -9.67617,-0.1779 -10.80117,-1.7309 l -0.36769,-0.5076 0.43586,-1.081 c 0.39428,-0.9778 0.56384,-1.2094 1.77716,-2.4269 l 1.34129,-1.34583 -0.70437,-0.0846 c -0.38739,-0.0465 -0.89754,-0.0851 -1.1336,-0.0858 -0.23607,-6e-4 -0.42921,-0.068 -0.42921,-0.14977 0,-0.10294 -0.34085,-0.13073 -1.10896,-0.0904 l -1.109,0.0582 -0.16016,-0.5369 c -0.22008,-0.73781 -0.50475,-1.26328 -0.68433,-1.26328 -0.0826,0 -0.82409,0.50619 -1.64773,1.12485 -0.82367,0.61866 -1.75002,1.24741 -2.05857,1.39722 -0.30856,0.14981 -0.6438,0.31471 -0.74497,0.36641 -0.10118,0.052 -0.20188,0.2619 -0.22376,0.4671 -0.0447,0.4198 -0.41674,1.0226 -1.301,2.1082 -0.33136,0.4068 -0.60246,0.7702 -0.60246,0.8076 0,0.037 0.55412,0.068 1.23138,0.068 0.93125,0 1.50022,-0.081 2.33444,-0.3302 0.6067,-0.1816 1.12234,-0.3302 1.14586,-0.3302 0.0234,0 0.0428,0.5931 0.0428,1.318 l 0,1.318 -0.5382,0.2746 c -0.36335,0.1854 -1.11507,0.3429 -2.31367,0.4848 -1.61062,0.1908 -1.78095,0.2361 -1.83467,0.4875 -0.14709,0.6886 -0.61143,4.8624 -0.54801,4.9258 0.039,0.039 1.12876,0.1183 2.42163,0.1761 1.29288,0.058 2.45859,0.148 2.59048,0.2001 0.19019,0.075 0.22543,0.1936 0.17051,0.5726 -0.13999,0.9656 -0.38003,10.1025 -0.30829,11.7354 0.0796,1.8131 0.31075,3.1042 0.8155,4.5556 0.45615,1.3117 1.06042,2.2559 2.14094,3.3454 1.23786,1.2481 2.26734,1.7701 3.77585,1.9144 1.45664,0.1394 4.52688,0.031 6.05784,-0.2135 z m 7.64436,-6.3321 c 0,-0.3278 0.009,-0.3302 1.18861,-0.3302 1.17979,0 1.18861,0 1.18861,0.3302 0,0.3277 -0.009,0.3302 -1.18861,0.3302 -1.17979,0 -1.18861,0 -1.18861,-0.3302 z m -17.9713,-15.7303 -0.84831,-0.86 0.35854,-0.3119 c 0.20567,-0.179 0.68431,-0.3767 1.12257,-0.4638 0.42021,-0.084 0.92746,-0.2683 1.12721,-0.4105 0.19976,-0.1423 0.36319,-0.2067 0.36319,-0.1431 0,0.2111 -0.4679,0.5431 -1.05933,0.7518 -0.69996,0.247 -1.18582,0.6726 -1.18582,1.0389 0,0.2083 0.0351,0.2324 0.15864,0.1089 0.12347,-0.1234 0.25521,-0.065 0.59431,0.2637 0.43075,0.4175 0.53844,0.6876 0.3265,0.8185 -0.06,0.037 -0.49092,-0.3195 -0.9575,-0.7925 z m -155.96161,15.9866 c 0,-0.032 -0.0927,-0.059 -0.20589,-0.059 -0.11325,0 -0.16857,0.061 -0.12294,0.1343 0.0754,0.122 0.32883,0.063 0.32883,-0.076 z m 192.48839,-24.6032 c 1.66384,-0.072 1.97396,-0.1174 1.93687,-0.2837 -0.14304,-0.6418 -0.28018,-3.63501 -0.28287,-6.17419 l -0.004,-2.9385 -3.78401,0 -3.784,0 0.0881,3.00452 c 0.0484,1.6525 0.12596,3.82537 0.17225,4.82877 l 0.0842,1.8242 1.79585,-0.088 c 0.98772,-0.048 2.68731,-0.1263 3.77685,-0.1734 z m 3.2209,-2.9839 c -0.11521,-0.1152 -1.17385,-0.30757 -1.17385,-0.2133 0,0.1981 0.19152,0.2721 0.70437,0.2721 0.29054,0 0.50181,-0.027 0.46948,-0.059 z m -86.9721,-0.37041 c -0.0337,-0.0545 -0.63716,-0.0912 -1.34108,-0.0817 -0.78875,0.0106 -1.1025,0.0488 -0.81763,0.0991 0.64933,0.11471 2.23246,0.10201 2.15871,-0.0173 z m 10.33925,-0.36318 c 0.39396,-2.18235 0.81327,-4.24259 0.87626,-4.3056 0.0421,-0.0421 1.01137,0.0677 2.15388,0.24408 l 2.0773,0.32068 -0.087,-5.62441 c -0.0478,-3.09344 -0.12536,-7.00599 -0.17226,-8.69457 l -0.0853,-3.07015 -0.42838,-0.50046 c -0.55779,-0.65164 -1.57076,-1.13487 -2.96539,-1.41459 -0.61741,-0.12383 -1.4053,-0.3456 -1.75087,-0.49281 -0.5902,-0.25145 -1.41876,-1.00948 -1.41876,-1.29798 0,-0.21888 -0.68956,0.0105 -1.35345,0.45021 -0.46968,0.31111 -0.62713,0.49819 -0.62741,0.74551 0,0.1816 -0.17514,0.69966 -0.3888,1.15124 -0.3098,0.65485 -0.71752,1.1393 -2.01391,2.39282 -0.89403,0.86445 -1.8489,1.76449 -2.12197,2.0001 l -0.49646,0.42838 0.0342,6.62164 0.0342,6.62165 2.60832,0.32521 2.60834,0.32523 0,2.07533 c 0,1.83367 0.0256,2.0803 0.22059,2.11802 0.12133,0.0236 0.89395,0.0427 1.71694,0.0427 l 1.49638,0 0.0834,-0.46218 z M 75.568439,998.71516 c 0.105508,-0.10552 -0.418736,-1.31841 -0.626241,-1.44883 -0.163474,-0.10275 -0.439199,0.0404 -1.244443,0.64641 -0.996504,0.74986 -1.020776,0.78083 -0.661753,0.84444 0.422609,0.0749 2.449156,0.0414 2.532437,-0.042 z m 58.225291,-3.26857 c 0.50651,-0.51337 1.20107,-1.14087 1.54346,-1.39444 0.74754,-0.55364 1.00139,-0.55242 3.90144,0.0188 1.03543,0.20393 1.91091,0.3425 1.94549,0.30791 0.0733,-0.0735 -0.18479,-15.36609 -0.26635,-15.77108 -0.15413,-0.76531 -1.68078,-1.76921 -3.09954,-2.03815 -1.77521,-0.33653 -2.28047,-0.5525 -2.99799,-1.28142 -0.63916,-0.64931 -0.71248,-0.68812 -1.05653,-0.55907 -0.20335,0.0763 -0.58354,0.28573 -0.84487,0.46547 -0.38786,0.26679 -0.50412,0.45636 -0.63301,1.03227 -0.24092,1.07652 -0.71739,1.69634 -2.8962,3.76753 l -2.00472,1.9057 0,6.62459 0,6.6246 2.60832,0.31827 c 2.49286,0.30418 2.61021,0.33144 2.65056,0.61538 0.0232,0.1634 0.0843,0.29709 0.1356,0.29709 0.0514,0 0.50783,-0.42002 1.01434,-0.93338 z m -65.871457,-0.586 c 2.244152,-0.52911 3.888407,-1.58522 6.670406,-4.28444 l 2.081808,-2.01986 -0.430195,-0.21526 c -0.2366,-0.1184 -0.711692,-0.60158 -1.055747,-1.07372 -0.81652,-1.12046 -1.546458,-1.981 -1.680365,-1.981 -0.05873,0 -0.181177,0.17948 -0.272051,0.39887 -0.213595,0.51564 -0.802874,1.00661 -1.422724,1.18533 -0.270132,0.0779 -1.82833,0.22195 -3.462675,0.32013 -3.378382,0.20296 -3.925271,0.34847 -5.480291,1.4581 -1.38961,0.99162 -2.149169,2.09176 -2.270596,3.28881 -0.05729,0.56456 -0.01991,0.74021 0.222202,1.04606 0.407323,0.51443 1.309379,0.93033 2.77426,1.27908 0.690053,0.16429 1.462653,0.4081 1.716875,0.54182 0.565757,0.29756 1.499778,0.31764 2.609093,0.0562 z m 192.581157,-0.20333 c 1.14145,-0.37828 2.42547,-1.03618 3.28932,-1.68536 0.38967,-0.29281 1.62768,-1.40828 2.75115,-2.47878 l 2.04265,-1.94637 -0.38715,-0.16279 c -0.3949,-0.16605 -0.68383,-0.48318 -1.91069,-2.09721 -0.38235,-0.50298 -0.765,-0.93733 -0.85037,-0.96521 -0.0854,-0.0279 -0.25614,0.16197 -0.37947,0.42187 -0.49382,1.04066 -1.13633,1.23408 -4.81404,1.44918 -3.78681,0.22146 -4.36336,0.414 -6.25483,2.08885 -0.91033,0.80607 -1.43199,1.68519 -1.59757,2.69234 -0.0807,0.49017 -0.0461,0.59612 0.33508,1.03028 0.56641,0.64511 0.88511,0.79335 2.711,1.26093 0.85372,0.21861 1.67523,0.48823 1.82558,0.59913 0.37614,0.27747 2.11249,0.16659 3.23934,-0.20686 z m 74.88781,-1.51294 c 0,-0.32773 -0.009,-0.33018 -1.1886,-0.33018 -1.17982,0 -1.18862,0.003 -1.18862,0.33018 0,0.32772 0.009,0.33016 1.18862,0.33016 1.1798,0 1.1886,-0.003 1.1886,-0.33016 z m -80.17747,-8.68344 c 0.15143,-0.19784 0.14604,-0.23112 -0.0374,-0.23112 -0.13171,0 -0.21428,0.11024 -0.21428,0.28614 0,0.15739 0.0168,0.26139 0.0374,0.23112 0.0206,-0.0303 0.11696,-0.15903 0.21425,-0.28614 z M 63.464234,984.28799 c 0,-0.032 -0.05946,-0.0583 -0.132061,-0.0583 -0.07267,0 -0.13207,0.0629 -0.13207,0.13988 0,0.077 0.05946,0.10312 0.13207,0.0583 0.07267,-0.045 0.132061,-0.10782 0.132061,-0.13987 z m 49.629256,-4.55203 c -0.0546,-0.14236 -1.82082,-1.99637 -1.82082,-1.91131 0,0.0391 0.2684,0.60557 0.59645,1.25876 l 0.59645,1.1876 0.33291,-0.21812 c 0.18308,-0.11998 0.31585,-0.26259 0.29501,-0.31693 z m 94.06021,0.005 c 0,-0.0406 -0.44573,-0.51664 -0.99051,-1.05777 -0.54478,-0.54116 -0.9905,-0.93964 -0.9905,-0.88552 0,0.0541 0.26919,0.63439 0.59821,1.2895 l 0.59823,1.19113 0.39227,-0.23173 c 0.21577,-0.12745 0.3923,-0.26497 0.3923,-0.30561 z m 108.476,-2.26426 c -0.3769,-0.38599 -0.53264,-0.46983 -0.66641,-0.35881 -0.22752,0.18882 -0.22097,0.0571 0.0203,-0.4095 0.14154,-0.27371 0.41734,-0.46182 1.00771,-0.68724 0.49774,-0.19007 0.89401,-0.43819 1.02225,-0.6401 0.20424,-0.32158 0.20301,-0.32444 -0.0502,-0.1153 -0.27907,0.23046 -0.89432,0.44125 -1.66329,0.56982 -0.26352,0.044 -0.64329,0.23223 -0.84388,0.41815 l -0.36473,0.33802 0.83569,0.84319 c 0.65797,0.66386 0.87385,0.81153 1.01506,0.69434 0.14598,-0.12116 0.0878,-0.24263 -0.31249,-0.65257 z m 42.34509,65.9351 c 0,-0.072 0.0594,-0.1687 0.13206,-0.2136 0.0727,-0.045 0.13206,-0.023 0.13206,0.051 0,0.072 -0.0594,0.1688 -0.13206,0.2136 -0.0726,0.045 -0.13206,0.023 -0.13206,-0.051 z m 7.92607,-6.5781 c 0.002,-0.059 0.0597,-0.196 0.13005,-0.3049 0.11032,-0.1707 0.12831,-0.1673 0.13003,0.025 0.002,0.1228 -0.0575,0.2601 -0.13003,0.305 -0.0727,0.045 -0.13116,0.033 -0.13005,-0.025 z m -208.1425,-51.56118 c -2.20265,-1.65478 -3.02679,-2.50403 -3.64613,-3.75721 -0.45186,-0.91425 -0.50501,-1.1322 -0.54144,-2.22023 -0.0276,-0.82319 0.0546,-1.75159 0.25868,-2.92238 0.26028,-1.49319 0.3334,-1.7212 0.56325,-1.7567 0.5193,-0.0802 0.86621,-0.34634 1.2684,-0.97308 1.14768,-1.78852 5.40611,-3.27705 9.38205,-3.27948 2.83621,-0.002 6.753,0.66343 9.01269,1.53055 0.12331,0.0474 0.20784,-0.0757 0.26632,-0.38744 0.18544,-0.98836 0.7097,-1.27738 2.68632,-1.48091 0.63128,-0.065 0.83952,-0.0432 0.88811,0.0931 0.0597,0.16709 0.56513,4.09011 0.63324,4.91426 0.0271,0.32861 -0.0563,0.42784 -0.63823,0.75864 -0.36821,0.2093 -0.944,0.4182 -1.27954,0.4642 -0.60606,0.0831 -0.61079,0.0807 -0.72508,-0.36244 -0.11167,-0.43304 -0.13665,-0.44721 -0.85487,-0.48531 -0.6704,-0.0355 -0.78477,1.1e-4 -1.21823,0.38075 -0.26312,0.23102 -0.45314,0.44527 -0.42225,0.47614 0.12833,0.12833 3.38916,0.83881 4.21195,0.91771 0.51735,0.0496 0.88924,0.14681 0.88622,0.23161 -0.003,0.0803 -0.3446,0.79985 -0.75939,1.59887 -0.65831,1.26811 -0.82623,1.49216 -1.32115,1.76293 -0.3305,0.18081 -0.89512,0.33996 -1.3537,0.38153 -0.77118,0.0699 -0.7867,0.0648 -0.7867,-0.26066 0,-0.25584 0.0834,-0.34933 0.36317,-0.40752 0.19976,-0.0415 0.58847,-0.26324 0.86377,-0.49272 l 0.50055,-0.41724 -0.0383,-1.00954 -0.0383,-1.00952 -0.79241,-0.0969 c -0.43585,-0.0533 -1.43512,-0.13354 -2.2206,-0.17837 -1.39861,-0.0798 -1.42342,-0.0868 -1.19833,-0.33547 0.29478,-0.3257 0.19262,-0.42075 -0.88993,-0.82822 -2.15191,-0.80999 -5.12054,-0.95266 -7.24705,-0.34831 -1.14809,0.32628 -3.1141,1.2494 -3.93792,1.84902 -0.52195,0.3799 -0.56263,0.45069 -0.48088,0.83694 0.20576,0.97236 0.6345,1.68763 1.49901,2.50092 l 0.8786,0.82652 1.91204,0.36633 c 1.05164,0.20147 2.07464,0.3649 2.27336,0.36317 0.27671,-0.003 0.44289,0.12014 0.70966,0.52325 l 0.34834,0.52637 -0.54458,0.90129 c -0.29952,0.49571 -0.54456,0.99644 -0.54456,1.11273 0,0.11629 0.18285,0.36529 0.40632,0.55335 l 0.40635,0.34191 -1.16573,-0.01 c -0.83561,-0.006 -1.09093,-0.0446 -0.90159,-0.13406 0.26208,-0.1238 -0.57988,-0.102 -3.69997,0.0958 l -1.32275,0.0838 -1.64876,-1.23867 z m 18.83041,-13.15189 c -0.0461,-0.12011 -0.3509,-0.17316 -0.99506,-0.17316 l -0.92863,0 0,0.40146 c 0,0.56664 0.40312,1.28919 1.21542,2.17852 l 0.69957,0.76593 0.0376,-1.49979 c 0.0206,-0.8249 0.007,-1.57772 -0.0289,-1.67296 z"
       id="path26937" />
  </g>
</svg>
